<?xml version="1.0" encoding="utf-8" standalone="no"?>
<!DOCTYPE svg PUBLIC "-//W3C//DTD SVG 1.1//EN"
  "http://www.w3.org/Graphics/SVG/1.1/DTD/svg11.dtd">
<svg xmlns:xlink="http://www.w3.org/1999/xlink" width="345.6pt" height="259.2pt" viewBox="0 0 345.6 259.2" xmlns="http://www.w3.org/2000/svg" version="1.1">
 <metadata>
  <rdf:RDF xmlns:dc="http://purl.org/dc/elements/1.1/" xmlns:cc="http://creativecommons.org/ns#" xmlns:rdf="http://www.w3.org/1999/02/22-rdf-syntax-ns#">
   <cc:Work>
    <dc:type rdf:resource="http://purl.org/dc/dcmitype/StillImage"/>
    <dc:date>2024-08-15T09:38:06.661792</dc:date>
    <dc:format>image/svg+xml</dc:format>
    <dc:creator>
     <cc:Agent>
      <dc:title>Matplotlib v3.7.2, https://matplotlib.org/</dc:title>
     </cc:Agent>
    </dc:creator>
   </cc:Work>
  </rdf:RDF>
 </metadata>
 <defs>
  <style type="text/css">*{stroke-linejoin: round; stroke-linecap: butt}</style>
 </defs>
 <g id="figure_1">
  <g id="patch_1">
   <path d="M 0 259.2 
L 345.6 259.2 
L 345.6 0 
L 0 0 
z
" style="fill: #ffffff"/>
  </g>
  <g id="axes_1">
   <g id="patch_2">
    <path d="M 45.909346 241.137882 
L 340.483462 241.137882 
L 340.483462 3.00024 
L 45.909346 3.00024 
z
" style="fill: #ffffff"/>
   </g>
   <g id="patch_3">
    <path d="M 59.299079 241.137882 
L 63.689155 241.137882 
L 63.689155 235.801464 
L 59.299079 235.801464 
z
" clip-path="url(#pefa659245b)" style="fill: #1f77b4; stroke: #ffffff; stroke-linejoin: miter"/>
   </g>
   <g id="patch_4">
    <path d="M 63.689155 241.137882 
L 68.079231 241.137882 
L 68.079231 238.469673 
L 63.689155 238.469673 
z
" clip-path="url(#pefa659245b)" style="fill: #1f77b4; stroke: #ffffff; stroke-linejoin: miter"/>
   </g>
   <g id="patch_5">
    <path d="M 68.079231 241.137882 
L 72.469308 241.137882 
L 72.469308 235.801464 
L 68.079231 235.801464 
z
" clip-path="url(#pefa659245b)" style="fill: #1f77b4; stroke: #ffffff; stroke-linejoin: miter"/>
   </g>
   <g id="patch_6">
    <path d="M 72.469308 241.137882 
L 76.859384 241.137882 
L 76.859384 238.469673 
L 72.469308 238.469673 
z
" clip-path="url(#pefa659245b)" style="fill: #1f77b4; stroke: #ffffff; stroke-linejoin: miter"/>
   </g>
   <g id="patch_7">
    <path d="M 76.859384 241.137882 
L 81.24946 241.137882 
L 81.24946 241.137882 
L 76.859384 241.137882 
z
" clip-path="url(#pefa659245b)" style="fill: #1f77b4; stroke: #ffffff; stroke-linejoin: miter"/>
   </g>
   <g id="patch_8">
    <path d="M 81.24946 241.137882 
L 85.639536 241.137882 
L 85.639536 233.133255 
L 81.24946 233.133255 
z
" clip-path="url(#pefa659245b)" style="fill: #1f77b4; stroke: #ffffff; stroke-linejoin: miter"/>
   </g>
   <g id="patch_9">
    <path d="M 85.639536 241.137882 
L 90.029612 241.137882 
L 90.029612 225.128629 
L 85.639536 225.128629 
z
" clip-path="url(#pefa659245b)" style="fill: #1f77b4; stroke: #ffffff; stroke-linejoin: miter"/>
   </g>
   <g id="patch_10">
    <path d="M 90.029612 241.137882 
L 94.419689 241.137882 
L 94.419689 230.465046 
L 90.029612 230.465046 
z
" clip-path="url(#pefa659245b)" style="fill: #1f77b4; stroke: #ffffff; stroke-linejoin: miter"/>
   </g>
   <g id="patch_11">
    <path d="M 94.419689 241.137882 
L 98.809765 241.137882 
L 98.809765 230.465046 
L 94.419689 230.465046 
z
" clip-path="url(#pefa659245b)" style="fill: #1f77b4; stroke: #ffffff; stroke-linejoin: miter"/>
   </g>
   <g id="patch_12">
    <path d="M 98.809765 241.137882 
L 103.199841 241.137882 
L 103.199841 227.796838 
L 98.809765 227.796838 
z
" clip-path="url(#pefa659245b)" style="fill: #1f77b4; stroke: #ffffff; stroke-linejoin: miter"/>
   </g>
   <g id="patch_13">
    <path d="M 103.199841 241.137882 
L 107.589917 241.137882 
L 107.589917 209.119375 
L 103.199841 209.119375 
z
" clip-path="url(#pefa659245b)" style="fill: #1f77b4; stroke: #ffffff; stroke-linejoin: miter"/>
   </g>
   <g id="patch_14">
    <path d="M 107.589917 241.137882 
L 111.979994 241.137882 
L 111.979994 174.43266 
L 107.589917 174.43266 
z
" clip-path="url(#pefa659245b)" style="fill: #1f77b4; stroke: #ffffff; stroke-linejoin: miter"/>
   </g>
   <g id="patch_15">
    <path d="M 111.979994 241.137882 
L 116.37007 241.137882 
L 116.37007 177.100869 
L 111.979994 177.100869 
z
" clip-path="url(#pefa659245b)" style="fill: #1f77b4; stroke: #ffffff; stroke-linejoin: miter"/>
   </g>
   <g id="patch_16">
    <path d="M 116.37007 241.137882 
L 120.760146 241.137882 
L 120.760146 145.082362 
L 116.37007 145.082362 
z
" clip-path="url(#pefa659245b)" style="fill: #1f77b4; stroke: #ffffff; stroke-linejoin: miter"/>
   </g>
   <g id="patch_17">
    <path d="M 120.760146 241.137882 
L 125.150222 241.137882 
L 125.150222 131.741318 
L 120.760146 131.741318 
z
" clip-path="url(#pefa659245b)" style="fill: #1f77b4; stroke: #ffffff; stroke-linejoin: miter"/>
   </g>
   <g id="patch_18">
    <path d="M 125.150222 241.137882 
L 129.540299 241.137882 
L 129.540299 14.340128 
L 125.150222 14.340128 
z
" clip-path="url(#pefa659245b)" style="fill: #1f77b4; stroke: #ffffff; stroke-linejoin: miter"/>
   </g>
   <g id="patch_19">
    <path d="M 129.540299 241.137882 
L 133.930375 241.137882 
L 133.930375 67.704305 
L 129.540299 67.704305 
z
" clip-path="url(#pefa659245b)" style="fill: #1f77b4; stroke: #ffffff; stroke-linejoin: miter"/>
   </g>
   <g id="patch_20">
    <path d="M 133.930375 241.137882 
L 138.320451 241.137882 
L 138.320451 105.059229 
L 133.930375 105.059229 
z
" clip-path="url(#pefa659245b)" style="fill: #1f77b4; stroke: #ffffff; stroke-linejoin: miter"/>
   </g>
   <g id="patch_21">
    <path d="M 138.320451 241.137882 
L 142.710527 241.137882 
L 142.710527 145.082362 
L 138.320451 145.082362 
z
" clip-path="url(#pefa659245b)" style="fill: #1f77b4; stroke: #ffffff; stroke-linejoin: miter"/>
   </g>
   <g id="patch_22">
    <path d="M 142.710527 241.137882 
L 147.100604 241.137882 
L 147.100604 174.43266 
L 142.710527 174.43266 
z
" clip-path="url(#pefa659245b)" style="fill: #1f77b4; stroke: #ffffff; stroke-linejoin: miter"/>
   </g>
   <g id="patch_23">
    <path d="M 147.100604 241.137882 
L 151.49068 241.137882 
L 151.49068 193.110122 
L 147.100604 193.110122 
z
" clip-path="url(#pefa659245b)" style="fill: #1f77b4; stroke: #ffffff; stroke-linejoin: miter"/>
   </g>
   <g id="patch_24">
    <path d="M 151.49068 241.137882 
L 155.880756 241.137882 
L 155.880756 211.787584 
L 151.49068 211.787584 
z
" clip-path="url(#pefa659245b)" style="fill: #1f77b4; stroke: #ffffff; stroke-linejoin: miter"/>
   </g>
   <g id="patch_25">
    <path d="M 155.880756 241.137882 
L 160.270832 241.137882 
L 160.270832 230.465046 
L 155.880756 230.465046 
z
" clip-path="url(#pefa659245b)" style="fill: #1f77b4; stroke: #ffffff; stroke-linejoin: miter"/>
   </g>
   <g id="patch_26">
    <path d="M 160.270832 241.137882 
L 164.660909 241.137882 
L 164.660909 219.792211 
L 160.270832 219.792211 
z
" clip-path="url(#pefa659245b)" style="fill: #1f77b4; stroke: #ffffff; stroke-linejoin: miter"/>
   </g>
   <g id="patch_27">
    <path d="M 164.660909 241.137882 
L 169.050985 241.137882 
L 169.050985 238.469673 
L 164.660909 238.469673 
z
" clip-path="url(#pefa659245b)" style="fill: #1f77b4; stroke: #ffffff; stroke-linejoin: miter"/>
   </g>
   <g id="patch_28">
    <path d="M 169.050985 241.137882 
L 173.441061 241.137882 
L 173.441061 227.796838 
L 169.050985 227.796838 
z
" clip-path="url(#pefa659245b)" style="fill: #1f77b4; stroke: #ffffff; stroke-linejoin: miter"/>
   </g>
   <g id="patch_29">
    <path d="M 173.441061 241.137882 
L 177.831137 241.137882 
L 177.831137 238.469673 
L 173.441061 238.469673 
z
" clip-path="url(#pefa659245b)" style="fill: #1f77b4; stroke: #ffffff; stroke-linejoin: miter"/>
   </g>
   <g id="patch_30">
    <path d="M 177.831137 241.137882 
L 182.221214 241.137882 
L 182.221214 238.469673 
L 177.831137 238.469673 
z
" clip-path="url(#pefa659245b)" style="fill: #1f77b4; stroke: #ffffff; stroke-linejoin: miter"/>
   </g>
   <g id="patch_31">
    <path d="M 182.221214 241.137882 
L 186.61129 241.137882 
L 186.61129 241.137882 
L 182.221214 241.137882 
z
" clip-path="url(#pefa659245b)" style="fill: #1f77b4; stroke: #ffffff; stroke-linejoin: miter"/>
   </g>
   <g id="patch_32">
    <path d="M 186.61129 241.137882 
L 191.001366 241.137882 
L 191.001366 238.469673 
L 186.61129 238.469673 
z
" clip-path="url(#pefa659245b)" style="fill: #1f77b4; stroke: #ffffff; stroke-linejoin: miter"/>
   </g>
   <g id="patch_33">
    <path d="M 191.001366 241.137882 
L 195.391442 241.137882 
L 195.391442 241.137882 
L 191.001366 241.137882 
z
" clip-path="url(#pefa659245b)" style="fill: #1f77b4; stroke: #ffffff; stroke-linejoin: miter"/>
   </g>
   <g id="patch_34">
    <path d="M 195.391442 241.137882 
L 199.781518 241.137882 
L 199.781518 241.137882 
L 195.391442 241.137882 
z
" clip-path="url(#pefa659245b)" style="fill: #1f77b4; stroke: #ffffff; stroke-linejoin: miter"/>
   </g>
   <g id="patch_35">
    <path d="M 199.781518 241.137882 
L 204.171595 241.137882 
L 204.171595 230.465046 
L 199.781518 230.465046 
z
" clip-path="url(#pefa659245b)" style="fill: #1f77b4; stroke: #ffffff; stroke-linejoin: miter"/>
   </g>
   <g id="patch_36">
    <path d="M 204.171595 241.137882 
L 208.561671 241.137882 
L 208.561671 238.469673 
L 204.171595 238.469673 
z
" clip-path="url(#pefa659245b)" style="fill: #1f77b4; stroke: #ffffff; stroke-linejoin: miter"/>
   </g>
   <g id="patch_37">
    <path d="M 208.561671 241.137882 
L 212.951747 241.137882 
L 212.951747 241.137882 
L 208.561671 241.137882 
z
" clip-path="url(#pefa659245b)" style="fill: #1f77b4; stroke: #ffffff; stroke-linejoin: miter"/>
   </g>
   <g id="patch_38">
    <path d="M 212.951747 241.137882 
L 217.341823 241.137882 
L 217.341823 241.137882 
L 212.951747 241.137882 
z
" clip-path="url(#pefa659245b)" style="fill: #1f77b4; stroke: #ffffff; stroke-linejoin: miter"/>
   </g>
   <g id="patch_39">
    <path d="M 217.341823 241.137882 
L 221.7319 241.137882 
L 221.7319 241.137882 
L 217.341823 241.137882 
z
" clip-path="url(#pefa659245b)" style="fill: #1f77b4; stroke: #ffffff; stroke-linejoin: miter"/>
   </g>
   <g id="patch_40">
    <path d="M 221.7319 241.137882 
L 226.121976 241.137882 
L 226.121976 241.137882 
L 221.7319 241.137882 
z
" clip-path="url(#pefa659245b)" style="fill: #1f77b4; stroke: #ffffff; stroke-linejoin: miter"/>
   </g>
   <g id="patch_41">
    <path d="M 226.121976 241.137882 
L 230.512052 241.137882 
L 230.512052 241.137882 
L 226.121976 241.137882 
z
" clip-path="url(#pefa659245b)" style="fill: #1f77b4; stroke: #ffffff; stroke-linejoin: miter"/>
   </g>
   <g id="patch_42">
    <path d="M 230.512052 241.137882 
L 234.902128 241.137882 
L 234.902128 241.137882 
L 230.512052 241.137882 
z
" clip-path="url(#pefa659245b)" style="fill: #1f77b4; stroke: #ffffff; stroke-linejoin: miter"/>
   </g>
   <g id="patch_43">
    <path d="M 234.902128 241.137882 
L 239.292205 241.137882 
L 239.292205 241.137882 
L 234.902128 241.137882 
z
" clip-path="url(#pefa659245b)" style="fill: #1f77b4; stroke: #ffffff; stroke-linejoin: miter"/>
   </g>
   <g id="patch_44">
    <path d="M 239.292205 241.137882 
L 243.682281 241.137882 
L 243.682281 241.137882 
L 239.292205 241.137882 
z
" clip-path="url(#pefa659245b)" style="fill: #1f77b4; stroke: #ffffff; stroke-linejoin: miter"/>
   </g>
   <g id="patch_45">
    <path d="M 243.682281 241.137882 
L 248.072357 241.137882 
L 248.072357 241.137882 
L 243.682281 241.137882 
z
" clip-path="url(#pefa659245b)" style="fill: #1f77b4; stroke: #ffffff; stroke-linejoin: miter"/>
   </g>
   <g id="patch_46">
    <path d="M 248.072357 241.137882 
L 252.462433 241.137882 
L 252.462433 241.137882 
L 248.072357 241.137882 
z
" clip-path="url(#pefa659245b)" style="fill: #1f77b4; stroke: #ffffff; stroke-linejoin: miter"/>
   </g>
   <g id="patch_47">
    <path d="M 252.462433 241.137882 
L 256.85251 241.137882 
L 256.85251 241.137882 
L 252.462433 241.137882 
z
" clip-path="url(#pefa659245b)" style="fill: #1f77b4; stroke: #ffffff; stroke-linejoin: miter"/>
   </g>
   <g id="patch_48">
    <path d="M 256.85251 241.137882 
L 261.242586 241.137882 
L 261.242586 241.137882 
L 256.85251 241.137882 
z
" clip-path="url(#pefa659245b)" style="fill: #1f77b4; stroke: #ffffff; stroke-linejoin: miter"/>
   </g>
   <g id="patch_49">
    <path d="M 261.242586 241.137882 
L 265.632662 241.137882 
L 265.632662 241.137882 
L 261.242586 241.137882 
z
" clip-path="url(#pefa659245b)" style="fill: #1f77b4; stroke: #ffffff; stroke-linejoin: miter"/>
   </g>
   <g id="patch_50">
    <path d="M 265.632662 241.137882 
L 270.022738 241.137882 
L 270.022738 241.137882 
L 265.632662 241.137882 
z
" clip-path="url(#pefa659245b)" style="fill: #1f77b4; stroke: #ffffff; stroke-linejoin: miter"/>
   </g>
   <g id="patch_51">
    <path d="M 270.022738 241.137882 
L 274.412815 241.137882 
L 274.412815 241.137882 
L 270.022738 241.137882 
z
" clip-path="url(#pefa659245b)" style="fill: #1f77b4; stroke: #ffffff; stroke-linejoin: miter"/>
   </g>
   <g id="patch_52">
    <path d="M 274.412815 241.137882 
L 278.802891 241.137882 
L 278.802891 241.137882 
L 274.412815 241.137882 
z
" clip-path="url(#pefa659245b)" style="fill: #1f77b4; stroke: #ffffff; stroke-linejoin: miter"/>
   </g>
   <g id="patch_53">
    <path d="M 278.802891 241.137882 
L 283.192967 241.137882 
L 283.192967 241.137882 
L 278.802891 241.137882 
z
" clip-path="url(#pefa659245b)" style="fill: #1f77b4; stroke: #ffffff; stroke-linejoin: miter"/>
   </g>
   <g id="patch_54">
    <path d="M 283.192967 241.137882 
L 287.583043 241.137882 
L 287.583043 241.137882 
L 283.192967 241.137882 
z
" clip-path="url(#pefa659245b)" style="fill: #1f77b4; stroke: #ffffff; stroke-linejoin: miter"/>
   </g>
   <g id="patch_55">
    <path d="M 287.583043 241.137882 
L 291.97312 241.137882 
L 291.97312 241.137882 
L 287.583043 241.137882 
z
" clip-path="url(#pefa659245b)" style="fill: #1f77b4; stroke: #ffffff; stroke-linejoin: miter"/>
   </g>
   <g id="patch_56">
    <path d="M 291.97312 241.137882 
L 296.363196 241.137882 
L 296.363196 241.137882 
L 291.97312 241.137882 
z
" clip-path="url(#pefa659245b)" style="fill: #1f77b4; stroke: #ffffff; stroke-linejoin: miter"/>
   </g>
   <g id="patch_57">
    <path d="M 296.363196 241.137882 
L 300.753272 241.137882 
L 300.753272 241.137882 
L 296.363196 241.137882 
z
" clip-path="url(#pefa659245b)" style="fill: #1f77b4; stroke: #ffffff; stroke-linejoin: miter"/>
   </g>
   <g id="patch_58">
    <path d="M 300.753272 241.137882 
L 305.143348 241.137882 
L 305.143348 241.137882 
L 300.753272 241.137882 
z
" clip-path="url(#pefa659245b)" style="fill: #1f77b4; stroke: #ffffff; stroke-linejoin: miter"/>
   </g>
   <g id="patch_59">
    <path d="M 305.143348 241.137882 
L 309.533424 241.137882 
L 309.533424 241.137882 
L 305.143348 241.137882 
z
" clip-path="url(#pefa659245b)" style="fill: #1f77b4; stroke: #ffffff; stroke-linejoin: miter"/>
   </g>
   <g id="patch_60">
    <path d="M 309.533424 241.137882 
L 313.923501 241.137882 
L 313.923501 241.137882 
L 309.533424 241.137882 
z
" clip-path="url(#pefa659245b)" style="fill: #1f77b4; stroke: #ffffff; stroke-linejoin: miter"/>
   </g>
   <g id="patch_61">
    <path d="M 313.923501 241.137882 
L 318.313577 241.137882 
L 318.313577 241.137882 
L 313.923501 241.137882 
z
" clip-path="url(#pefa659245b)" style="fill: #1f77b4; stroke: #ffffff; stroke-linejoin: miter"/>
   </g>
   <g id="patch_62">
    <path d="M 318.313577 241.137882 
L 322.703653 241.137882 
L 322.703653 241.137882 
L 318.313577 241.137882 
z
" clip-path="url(#pefa659245b)" style="fill: #1f77b4; stroke: #ffffff; stroke-linejoin: miter"/>
   </g>
   <g id="patch_63">
    <path d="M 322.703653 241.137882 
L 327.093729 241.137882 
L 327.093729 238.469673 
L 322.703653 238.469673 
z
" clip-path="url(#pefa659245b)" style="fill: #1f77b4; stroke: #ffffff; stroke-linejoin: miter"/>
   </g>
   <g id="matplotlib.axis_1">
    <g id="xtick_1">
     <g id="line2d_1">
      <defs>
       <path id="m40c21f1625" d="M 0 0 
L 0 3.5 
" style="stroke: #000000; stroke-width: 0.8"/>
      </defs>
      <g>
       <use xlink:href="#m40c21f1625" x="47.43977" y="241.137882" style="stroke: #000000; stroke-width: 0.8"/>
      </g>
     </g>
     <g id="text_1">
      <!-- −100 -->
      <g transform="translate(35.999686 254.46738) scale(0.0833 -0.0833)">
       <defs>
        <path id="DejaVuSans-2212" d="M 678 2272 
L 4684 2272 
L 4684 1741 
L 678 1741 
L 678 2272 
z
" transform="scale(0.015625)"/>
        <path id="DejaVuSans-31" d="M 794 531 
L 1825 531 
L 1825 4091 
L 703 3866 
L 703 4441 
L 1819 4666 
L 2450 4666 
L 2450 531 
L 3481 531 
L 3481 0 
L 794 0 
L 794 531 
z
" transform="scale(0.015625)"/>
        <path id="DejaVuSans-30" d="M 2034 4250 
Q 1547 4250 1301 3770 
Q 1056 3291 1056 2328 
Q 1056 1369 1301 889 
Q 1547 409 2034 409 
Q 2525 409 2770 889 
Q 3016 1369 3016 2328 
Q 3016 3291 2770 3770 
Q 2525 4250 2034 4250 
z
M 2034 4750 
Q 2819 4750 3233 4129 
Q 3647 3509 3647 2328 
Q 3647 1150 3233 529 
Q 2819 -91 2034 -91 
Q 1250 -91 836 529 
Q 422 1150 422 2328 
Q 422 3509 836 4129 
Q 1250 4750 2034 4750 
z
" transform="scale(0.015625)"/>
       </defs>
       <use xlink:href="#DejaVuSans-2212"/>
       <use xlink:href="#DejaVuSans-31" x="83.789062"/>
       <use xlink:href="#DejaVuSans-30" x="147.412109"/>
       <use xlink:href="#DejaVuSans-30" x="211.035156"/>
      </g>
     </g>
    </g>
    <g id="xtick_2">
     <g id="line2d_2">
      <g>
       <use xlink:href="#m40c21f1625" x="88.468303" y="241.137882" style="stroke: #000000; stroke-width: 0.8"/>
      </g>
     </g>
     <g id="text_2">
      <!-- −50 -->
      <g transform="translate(79.6782 254.46738) scale(0.0833 -0.0833)">
       <defs>
        <path id="DejaVuSans-35" d="M 691 4666 
L 3169 4666 
L 3169 4134 
L 1269 4134 
L 1269 2991 
Q 1406 3038 1543 3061 
Q 1681 3084 1819 3084 
Q 2600 3084 3056 2656 
Q 3513 2228 3513 1497 
Q 3513 744 3044 326 
Q 2575 -91 1722 -91 
Q 1428 -91 1123 -41 
Q 819 9 494 109 
L 494 744 
Q 775 591 1075 516 
Q 1375 441 1709 441 
Q 2250 441 2565 725 
Q 2881 1009 2881 1497 
Q 2881 1984 2565 2268 
Q 2250 2553 1709 2553 
Q 1456 2553 1204 2497 
Q 953 2441 691 2322 
L 691 4666 
z
" transform="scale(0.015625)"/>
       </defs>
       <use xlink:href="#DejaVuSans-2212"/>
       <use xlink:href="#DejaVuSans-35" x="83.789062"/>
       <use xlink:href="#DejaVuSans-30" x="147.412109"/>
      </g>
     </g>
    </g>
    <g id="xtick_3">
     <g id="line2d_3">
      <g>
       <use xlink:href="#m40c21f1625" x="129.496836" y="241.137882" style="stroke: #000000; stroke-width: 0.8"/>
      </g>
     </g>
     <g id="text_3">
      <!-- 0 -->
      <g transform="translate(126.846854 254.46738) scale(0.0833 -0.0833)">
       <use xlink:href="#DejaVuSans-30"/>
      </g>
     </g>
    </g>
    <g id="xtick_4">
     <g id="line2d_4">
      <g>
       <use xlink:href="#m40c21f1625" x="170.525368" y="241.137882" style="stroke: #000000; stroke-width: 0.8"/>
      </g>
     </g>
     <g id="text_4">
      <!-- 50 -->
      <g transform="translate(165.225406 254.46738) scale(0.0833 -0.0833)">
       <use xlink:href="#DejaVuSans-35"/>
       <use xlink:href="#DejaVuSans-30" x="63.623047"/>
      </g>
     </g>
    </g>
    <g id="xtick_5">
     <g id="line2d_5">
      <g>
       <use xlink:href="#m40c21f1625" x="211.553901" y="241.137882" style="stroke: #000000; stroke-width: 0.8"/>
      </g>
     </g>
     <g id="text_5">
      <!-- 100 -->
      <g transform="translate(203.603957 254.46738) scale(0.0833 -0.0833)">
       <use xlink:href="#DejaVuSans-31"/>
       <use xlink:href="#DejaVuSans-30" x="63.623047"/>
       <use xlink:href="#DejaVuSans-30" x="127.246094"/>
      </g>
     </g>
    </g>
    <g id="xtick_6">
     <g id="line2d_6">
      <g>
       <use xlink:href="#m40c21f1625" x="252.582434" y="241.137882" style="stroke: #000000; stroke-width: 0.8"/>
      </g>
     </g>
     <g id="text_6">
      <!-- 150 -->
      <g transform="translate(244.63249 254.46738) scale(0.0833 -0.0833)">
       <use xlink:href="#DejaVuSans-31"/>
       <use xlink:href="#DejaVuSans-35" x="63.623047"/>
       <use xlink:href="#DejaVuSans-30" x="127.246094"/>
      </g>
     </g>
    </g>
    <g id="xtick_7">
     <g id="line2d_7">
      <g>
       <use xlink:href="#m40c21f1625" x="293.610966" y="241.137882" style="stroke: #000000; stroke-width: 0.8"/>
      </g>
     </g>
     <g id="text_7">
      <!-- 200 -->
      <g transform="translate(285.661023 254.46738) scale(0.0833 -0.0833)">
       <defs>
        <path id="DejaVuSans-32" d="M 1228 531 
L 3431 531 
L 3431 0 
L 469 0 
L 469 531 
Q 828 903 1448 1529 
Q 2069 2156 2228 2338 
Q 2531 2678 2651 2914 
Q 2772 3150 2772 3378 
Q 2772 3750 2511 3984 
Q 2250 4219 1831 4219 
Q 1534 4219 1204 4116 
Q 875 4013 500 3803 
L 500 4441 
Q 881 4594 1212 4672 
Q 1544 4750 1819 4750 
Q 2544 4750 2975 4387 
Q 3406 4025 3406 3419 
Q 3406 3131 3298 2873 
Q 3191 2616 2906 2266 
Q 2828 2175 2409 1742 
Q 1991 1309 1228 531 
z
" transform="scale(0.015625)"/>
       </defs>
       <use xlink:href="#DejaVuSans-32"/>
       <use xlink:href="#DejaVuSans-30" x="63.623047"/>
       <use xlink:href="#DejaVuSans-30" x="127.246094"/>
      </g>
     </g>
    </g>
    <g id="xtick_8">
     <g id="line2d_8">
      <g>
       <use xlink:href="#m40c21f1625" x="334.639499" y="241.137882" style="stroke: #000000; stroke-width: 0.8"/>
      </g>
     </g>
     <g id="text_8">
      <!-- 250 -->
      <g transform="translate(326.689555 254.46738) scale(0.0833 -0.0833)">
       <use xlink:href="#DejaVuSans-32"/>
       <use xlink:href="#DejaVuSans-35" x="63.623047"/>
       <use xlink:href="#DejaVuSans-30" x="127.246094"/>
      </g>
     </g>
    </g>
   </g>
   <g id="matplotlib.axis_2">
    <g id="ytick_1">
     <g id="line2d_9">
      <defs>
       <path id="m6fb69f4332" d="M 0 0 
L -3.5 0 
" style="stroke: #000000; stroke-width: 0.8"/>
      </defs>
      <g>
       <use xlink:href="#m6fb69f4332" x="45.909346" y="241.137882" style="stroke: #000000; stroke-width: 0.8"/>
      </g>
     </g>
     <g id="text_9">
      <!-- 0.000 -->
      <g transform="translate(15.062118 244.302631) scale(0.0833 -0.0833)">
       <defs>
        <path id="DejaVuSans-2e" d="M 684 794 
L 1344 794 
L 1344 0 
L 684 0 
L 684 794 
z
" transform="scale(0.015625)"/>
       </defs>
       <use xlink:href="#DejaVuSans-30"/>
       <use xlink:href="#DejaVuSans-2e" x="63.623047"/>
       <use xlink:href="#DejaVuSans-30" x="95.410156"/>
       <use xlink:href="#DejaVuSans-30" x="159.033203"/>
       <use xlink:href="#DejaVuSans-30" x="222.65625"/>
      </g>
     </g>
    </g>
    <g id="ytick_2">
     <g id="line2d_10">
      <g>
       <use xlink:href="#m6fb69f4332" x="45.909346" y="206.592399" style="stroke: #000000; stroke-width: 0.8"/>
      </g>
     </g>
     <g id="text_10">
      <!-- 0.005 -->
      <g transform="translate(15.062118 209.757148) scale(0.0833 -0.0833)">
       <use xlink:href="#DejaVuSans-30"/>
       <use xlink:href="#DejaVuSans-2e" x="63.623047"/>
       <use xlink:href="#DejaVuSans-30" x="95.410156"/>
       <use xlink:href="#DejaVuSans-30" x="159.033203"/>
       <use xlink:href="#DejaVuSans-35" x="222.65625"/>
      </g>
     </g>
    </g>
    <g id="ytick_3">
     <g id="line2d_11">
      <g>
       <use xlink:href="#m6fb69f4332" x="45.909346" y="172.046916" style="stroke: #000000; stroke-width: 0.8"/>
      </g>
     </g>
     <g id="text_11">
      <!-- 0.010 -->
      <g transform="translate(15.062118 175.211665) scale(0.0833 -0.0833)">
       <use xlink:href="#DejaVuSans-30"/>
       <use xlink:href="#DejaVuSans-2e" x="63.623047"/>
       <use xlink:href="#DejaVuSans-30" x="95.410156"/>
       <use xlink:href="#DejaVuSans-31" x="159.033203"/>
       <use xlink:href="#DejaVuSans-30" x="222.65625"/>
      </g>
     </g>
    </g>
    <g id="ytick_4">
     <g id="line2d_12">
      <g>
       <use xlink:href="#m6fb69f4332" x="45.909346" y="137.501432" style="stroke: #000000; stroke-width: 0.8"/>
      </g>
     </g>
     <g id="text_12">
      <!-- 0.015 -->
      <g transform="translate(15.062118 140.666182) scale(0.0833 -0.0833)">
       <use xlink:href="#DejaVuSans-30"/>
       <use xlink:href="#DejaVuSans-2e" x="63.623047"/>
       <use xlink:href="#DejaVuSans-30" x="95.410156"/>
       <use xlink:href="#DejaVuSans-31" x="159.033203"/>
       <use xlink:href="#DejaVuSans-35" x="222.65625"/>
      </g>
     </g>
    </g>
    <g id="ytick_5">
     <g id="line2d_13">
      <g>
       <use xlink:href="#m6fb69f4332" x="45.909346" y="102.955949" style="stroke: #000000; stroke-width: 0.8"/>
      </g>
     </g>
     <g id="text_13">
      <!-- 0.020 -->
      <g transform="translate(15.062118 106.120699) scale(0.0833 -0.0833)">
       <use xlink:href="#DejaVuSans-30"/>
       <use xlink:href="#DejaVuSans-2e" x="63.623047"/>
       <use xlink:href="#DejaVuSans-30" x="95.410156"/>
       <use xlink:href="#DejaVuSans-32" x="159.033203"/>
       <use xlink:href="#DejaVuSans-30" x="222.65625"/>
      </g>
     </g>
    </g>
    <g id="ytick_6">
     <g id="line2d_14">
      <g>
       <use xlink:href="#m6fb69f4332" x="45.909346" y="68.410466" style="stroke: #000000; stroke-width: 0.8"/>
      </g>
     </g>
     <g id="text_14">
      <!-- 0.025 -->
      <g transform="translate(15.062118 71.575215) scale(0.0833 -0.0833)">
       <use xlink:href="#DejaVuSans-30"/>
       <use xlink:href="#DejaVuSans-2e" x="63.623047"/>
       <use xlink:href="#DejaVuSans-30" x="95.410156"/>
       <use xlink:href="#DejaVuSans-32" x="159.033203"/>
       <use xlink:href="#DejaVuSans-35" x="222.65625"/>
      </g>
     </g>
    </g>
    <g id="ytick_7">
     <g id="line2d_15">
      <g>
       <use xlink:href="#m6fb69f4332" x="45.909346" y="33.864983" style="stroke: #000000; stroke-width: 0.8"/>
      </g>
     </g>
     <g id="text_15">
      <!-- 0.030 -->
      <g transform="translate(15.062118 37.029732) scale(0.0833 -0.0833)">
       <defs>
        <path id="DejaVuSans-33" d="M 2597 2516 
Q 3050 2419 3304 2112 
Q 3559 1806 3559 1356 
Q 3559 666 3084 287 
Q 2609 -91 1734 -91 
Q 1441 -91 1130 -33 
Q 819 25 488 141 
L 488 750 
Q 750 597 1062 519 
Q 1375 441 1716 441 
Q 2309 441 2620 675 
Q 2931 909 2931 1356 
Q 2931 1769 2642 2001 
Q 2353 2234 1838 2234 
L 1294 2234 
L 1294 2753 
L 1863 2753 
Q 2328 2753 2575 2939 
Q 2822 3125 2822 3475 
Q 2822 3834 2567 4026 
Q 2313 4219 1838 4219 
Q 1578 4219 1281 4162 
Q 984 4106 628 3988 
L 628 4550 
Q 988 4650 1302 4700 
Q 1616 4750 1894 4750 
Q 2613 4750 3031 4423 
Q 3450 4097 3450 3541 
Q 3450 3153 3228 2886 
Q 3006 2619 2597 2516 
z
" transform="scale(0.015625)"/>
       </defs>
       <use xlink:href="#DejaVuSans-30"/>
       <use xlink:href="#DejaVuSans-2e" x="63.623047"/>
       <use xlink:href="#DejaVuSans-30" x="95.410156"/>
       <use xlink:href="#DejaVuSans-33" x="159.033203"/>
       <use xlink:href="#DejaVuSans-30" x="222.65625"/>
      </g>
     </g>
    </g>
    <g id="text_16">
     <!-- probability density -->
     <g transform="translate(9.329738 160.884909) rotate(-90) scale(0.0833 -0.0833)">
      <defs>
       <path id="DejaVuSans-70" d="M 1159 525 
L 1159 -1331 
L 581 -1331 
L 581 3500 
L 1159 3500 
L 1159 2969 
Q 1341 3281 1617 3432 
Q 1894 3584 2278 3584 
Q 2916 3584 3314 3078 
Q 3713 2572 3713 1747 
Q 3713 922 3314 415 
Q 2916 -91 2278 -91 
Q 1894 -91 1617 61 
Q 1341 213 1159 525 
z
M 3116 1747 
Q 3116 2381 2855 2742 
Q 2594 3103 2138 3103 
Q 1681 3103 1420 2742 
Q 1159 2381 1159 1747 
Q 1159 1113 1420 752 
Q 1681 391 2138 391 
Q 2594 391 2855 752 
Q 3116 1113 3116 1747 
z
" transform="scale(0.015625)"/>
       <path id="DejaVuSans-72" d="M 2631 2963 
Q 2534 3019 2420 3045 
Q 2306 3072 2169 3072 
Q 1681 3072 1420 2755 
Q 1159 2438 1159 1844 
L 1159 0 
L 581 0 
L 581 3500 
L 1159 3500 
L 1159 2956 
Q 1341 3275 1631 3429 
Q 1922 3584 2338 3584 
Q 2397 3584 2469 3576 
Q 2541 3569 2628 3553 
L 2631 2963 
z
" transform="scale(0.015625)"/>
       <path id="DejaVuSans-6f" d="M 1959 3097 
Q 1497 3097 1228 2736 
Q 959 2375 959 1747 
Q 959 1119 1226 758 
Q 1494 397 1959 397 
Q 2419 397 2687 759 
Q 2956 1122 2956 1747 
Q 2956 2369 2687 2733 
Q 2419 3097 1959 3097 
z
M 1959 3584 
Q 2709 3584 3137 3096 
Q 3566 2609 3566 1747 
Q 3566 888 3137 398 
Q 2709 -91 1959 -91 
Q 1206 -91 779 398 
Q 353 888 353 1747 
Q 353 2609 779 3096 
Q 1206 3584 1959 3584 
z
" transform="scale(0.015625)"/>
       <path id="DejaVuSans-62" d="M 3116 1747 
Q 3116 2381 2855 2742 
Q 2594 3103 2138 3103 
Q 1681 3103 1420 2742 
Q 1159 2381 1159 1747 
Q 1159 1113 1420 752 
Q 1681 391 2138 391 
Q 2594 391 2855 752 
Q 3116 1113 3116 1747 
z
M 1159 2969 
Q 1341 3281 1617 3432 
Q 1894 3584 2278 3584 
Q 2916 3584 3314 3078 
Q 3713 2572 3713 1747 
Q 3713 922 3314 415 
Q 2916 -91 2278 -91 
Q 1894 -91 1617 61 
Q 1341 213 1159 525 
L 1159 0 
L 581 0 
L 581 4863 
L 1159 4863 
L 1159 2969 
z
" transform="scale(0.015625)"/>
       <path id="DejaVuSans-61" d="M 2194 1759 
Q 1497 1759 1228 1600 
Q 959 1441 959 1056 
Q 959 750 1161 570 
Q 1363 391 1709 391 
Q 2188 391 2477 730 
Q 2766 1069 2766 1631 
L 2766 1759 
L 2194 1759 
z
M 3341 1997 
L 3341 0 
L 2766 0 
L 2766 531 
Q 2569 213 2275 61 
Q 1981 -91 1556 -91 
Q 1019 -91 701 211 
Q 384 513 384 1019 
Q 384 1609 779 1909 
Q 1175 2209 1959 2209 
L 2766 2209 
L 2766 2266 
Q 2766 2663 2505 2880 
Q 2244 3097 1772 3097 
Q 1472 3097 1187 3025 
Q 903 2953 641 2809 
L 641 3341 
Q 956 3463 1253 3523 
Q 1550 3584 1831 3584 
Q 2591 3584 2966 3190 
Q 3341 2797 3341 1997 
z
" transform="scale(0.015625)"/>
       <path id="DejaVuSans-69" d="M 603 3500 
L 1178 3500 
L 1178 0 
L 603 0 
L 603 3500 
z
M 603 4863 
L 1178 4863 
L 1178 4134 
L 603 4134 
L 603 4863 
z
" transform="scale(0.015625)"/>
       <path id="DejaVuSans-6c" d="M 603 4863 
L 1178 4863 
L 1178 0 
L 603 0 
L 603 4863 
z
" transform="scale(0.015625)"/>
       <path id="DejaVuSans-74" d="M 1172 4494 
L 1172 3500 
L 2356 3500 
L 2356 3053 
L 1172 3053 
L 1172 1153 
Q 1172 725 1289 603 
Q 1406 481 1766 481 
L 2356 481 
L 2356 0 
L 1766 0 
Q 1100 0 847 248 
Q 594 497 594 1153 
L 594 3053 
L 172 3053 
L 172 3500 
L 594 3500 
L 594 4494 
L 1172 4494 
z
" transform="scale(0.015625)"/>
       <path id="DejaVuSans-79" d="M 2059 -325 
Q 1816 -950 1584 -1140 
Q 1353 -1331 966 -1331 
L 506 -1331 
L 506 -850 
L 844 -850 
Q 1081 -850 1212 -737 
Q 1344 -625 1503 -206 
L 1606 56 
L 191 3500 
L 800 3500 
L 1894 763 
L 2988 3500 
L 3597 3500 
L 2059 -325 
z
" transform="scale(0.015625)"/>
       <path id="DejaVuSans-20" transform="scale(0.015625)"/>
       <path id="DejaVuSans-64" d="M 2906 2969 
L 2906 4863 
L 3481 4863 
L 3481 0 
L 2906 0 
L 2906 525 
Q 2725 213 2448 61 
Q 2172 -91 1784 -91 
Q 1150 -91 751 415 
Q 353 922 353 1747 
Q 353 2572 751 3078 
Q 1150 3584 1784 3584 
Q 2172 3584 2448 3432 
Q 2725 3281 2906 2969 
z
M 947 1747 
Q 947 1113 1208 752 
Q 1469 391 1925 391 
Q 2381 391 2643 752 
Q 2906 1113 2906 1747 
Q 2906 2381 2643 2742 
Q 2381 3103 1925 3103 
Q 1469 3103 1208 2742 
Q 947 2381 947 1747 
z
" transform="scale(0.015625)"/>
       <path id="DejaVuSans-65" d="M 3597 1894 
L 3597 1613 
L 953 1613 
Q 991 1019 1311 708 
Q 1631 397 2203 397 
Q 2534 397 2845 478 
Q 3156 559 3463 722 
L 3463 178 
Q 3153 47 2828 -22 
Q 2503 -91 2169 -91 
Q 1331 -91 842 396 
Q 353 884 353 1716 
Q 353 2575 817 3079 
Q 1281 3584 2069 3584 
Q 2775 3584 3186 3129 
Q 3597 2675 3597 1894 
z
M 3022 2063 
Q 3016 2534 2758 2815 
Q 2500 3097 2075 3097 
Q 1594 3097 1305 2825 
Q 1016 2553 972 2059 
L 3022 2063 
z
" transform="scale(0.015625)"/>
       <path id="DejaVuSans-6e" d="M 3513 2113 
L 3513 0 
L 2938 0 
L 2938 2094 
Q 2938 2591 2744 2837 
Q 2550 3084 2163 3084 
Q 1697 3084 1428 2787 
Q 1159 2491 1159 1978 
L 1159 0 
L 581 0 
L 581 3500 
L 1159 3500 
L 1159 2956 
Q 1366 3272 1645 3428 
Q 1925 3584 2291 3584 
Q 2894 3584 3203 3211 
Q 3513 2838 3513 2113 
z
" transform="scale(0.015625)"/>
       <path id="DejaVuSans-73" d="M 2834 3397 
L 2834 2853 
Q 2591 2978 2328 3040 
Q 2066 3103 1784 3103 
Q 1356 3103 1142 2972 
Q 928 2841 928 2578 
Q 928 2378 1081 2264 
Q 1234 2150 1697 2047 
L 1894 2003 
Q 2506 1872 2764 1633 
Q 3022 1394 3022 966 
Q 3022 478 2636 193 
Q 2250 -91 1575 -91 
Q 1294 -91 989 -36 
Q 684 19 347 128 
L 347 722 
Q 666 556 975 473 
Q 1284 391 1588 391 
Q 1994 391 2212 530 
Q 2431 669 2431 922 
Q 2431 1156 2273 1281 
Q 2116 1406 1581 1522 
L 1381 1569 
Q 847 1681 609 1914 
Q 372 2147 372 2553 
Q 372 3047 722 3315 
Q 1072 3584 1716 3584 
Q 2034 3584 2315 3537 
Q 2597 3491 2834 3397 
z
" transform="scale(0.015625)"/>
      </defs>
      <use xlink:href="#DejaVuSans-70"/>
      <use xlink:href="#DejaVuSans-72" x="63.476562"/>
      <use xlink:href="#DejaVuSans-6f" x="102.339844"/>
      <use xlink:href="#DejaVuSans-62" x="163.521484"/>
      <use xlink:href="#DejaVuSans-61" x="226.998047"/>
      <use xlink:href="#DejaVuSans-62" x="288.277344"/>
      <use xlink:href="#DejaVuSans-69" x="351.753906"/>
      <use xlink:href="#DejaVuSans-6c" x="379.537109"/>
      <use xlink:href="#DejaVuSans-69" x="407.320312"/>
      <use xlink:href="#DejaVuSans-74" x="435.103516"/>
      <use xlink:href="#DejaVuSans-79" x="474.3125"/>
      <use xlink:href="#DejaVuSans-20" x="533.492188"/>
      <use xlink:href="#DejaVuSans-64" x="565.279297"/>
      <use xlink:href="#DejaVuSans-65" x="628.755859"/>
      <use xlink:href="#DejaVuSans-6e" x="690.279297"/>
      <use xlink:href="#DejaVuSans-73" x="753.658203"/>
      <use xlink:href="#DejaVuSans-69" x="805.757812"/>
      <use xlink:href="#DejaVuSans-74" x="833.541016"/>
      <use xlink:href="#DejaVuSans-79" x="872.75"/>
     </g>
    </g>
   </g>
   <g id="line2d_16">
    <path d="M 59.299079 237.802523 
L 61.979706 237.198823 
L 64.928396 236.773521 
L 68.145148 236.551041 
L 73.774465 236.269904 
L 75.382842 235.920768 
L 76.723155 235.422833 
L 78.063469 234.704269 
L 79.671845 233.553351 
L 81.548284 231.901306 
L 86.10535 227.736716 
L 87.981789 226.394276 
L 90.394354 224.983423 
L 92.538855 223.692598 
L 93.879169 222.648987 
L 94.95142 221.573034 
L 96.023671 220.205434 
L 97.095921 218.477478 
L 98.168172 216.327893 
L 99.240423 213.708425 
L 100.580737 209.730727 
L 101.92105 204.970271 
L 103.529426 198.312574 
L 105.405865 189.509592 
L 108.086493 175.724897 
L 111.035182 159.37605 
L 112.911621 147.813389 
L 114.519998 136.59521 
L 116.128374 123.748444 
L 117.73675 109.089476 
L 119.613189 89.947818 
L 124.438318 39.513714 
L 125.778632 28.579309 
L 126.850883 21.801472 
L 127.655071 18.068582 
L 128.191196 16.275427 
L 128.727322 15.060036 
L 129.263447 14.432432 
L 129.53151 14.340128 
L 129.799572 14.39513 
L 130.067635 14.596601 
L 130.603761 15.433394 
L 131.139886 16.835209 
L 131.676011 18.780479 
L 132.4802 22.656707 
L 133.284388 27.582923 
L 134.356639 35.561852 
L 135.696952 47.337017 
L 137.573391 66.025912 
L 143.470771 126.606226 
L 145.34721 143.280005 
L 147.223649 158.012788 
L 148.832025 169.08305 
L 150.440401 178.799133 
L 152.048778 187.279475 
L 153.657154 194.64293 
L 155.26553 200.991159 
L 156.873906 206.410887 
L 158.482283 210.988068 
L 160.090659 214.821389 
L 161.699035 218.025864 
L 163.307412 220.725275 
L 165.183851 223.39479 
L 167.328352 226.007046 
L 169.740917 228.587142 
L 172.421544 231.152725 
L 175.102171 233.418213 
L 177.246673 234.966173 
L 179.391174 236.240286 
L 181.535676 237.236336 
L 183.680178 237.97818 
L 185.824679 238.49295 
L 187.969181 238.782482 
L 189.84562 238.825756 
L 191.722059 238.643243 
L 193.598498 238.233065 
L 196.279125 237.377941 
L 198.959752 236.565394 
L 200.568129 236.290188 
L 202.176505 236.256507 
L 203.784881 236.475474 
L 205.66132 236.998521 
L 208.341947 238.027035 
L 212.094825 239.451156 
L 214.50739 240.136758 
L 216.919954 240.603967 
L 219.868644 240.927019 
L 223.621522 241.0893 
L 231.395341 241.137136 
L 313.154468 241.06498 
L 317.443472 240.840585 
L 323.072789 240.27185 
L 326.289541 240.06344 
L 327.093729 240.053743 
L 327.093729 240.053743 
" clip-path="url(#pefa659245b)" style="fill: none; stroke: #32cd32; stroke-width: 1.5; stroke-linecap: square"/>
   </g>
   <g id="patch_64">
    <path d="M 45.909346 241.137882 
L 45.909346 3.00024 
" style="fill: none; stroke: #000000; stroke-width: 0.8; stroke-linejoin: miter; stroke-linecap: square"/>
   </g>
   <g id="patch_65">
    <path d="M 340.483462 241.137882 
L 340.483462 3.00024 
" style="fill: none; stroke: #000000; stroke-width: 0.8; stroke-linejoin: miter; stroke-linecap: square"/>
   </g>
   <g id="patch_66">
    <path d="M 45.909346 241.137882 
L 340.483462 241.137882 
" style="fill: none; stroke: #000000; stroke-width: 0.8; stroke-linejoin: miter; stroke-linecap: square"/>
   </g>
   <g id="patch_67">
    <path d="M 45.909346 3.00024 
L 340.483462 3.00024 
" style="fill: none; stroke: #000000; stroke-width: 0.8; stroke-linejoin: miter; stroke-linecap: square"/>
   </g>
   <g id="legend_1">
    <g id="patch_68">
     <path d="M 227.395903 34.117996 
L 334.652462 34.117996 
Q 336.318462 34.117996 336.318462 32.451996 
L 336.318462 8.83124 
Q 336.318462 7.16524 334.652462 7.16524 
L 227.395903 7.16524 
Q 225.729903 7.16524 225.729903 8.83124 
L 225.729903 32.451996 
Q 225.729903 34.117996 227.395903 34.117996 
z
" style="fill: #ffffff; opacity: 0.7; stroke: #cccccc; stroke-linejoin: miter"/>
    </g>
    <g id="patch_69">
     <path d="M 229.061903 16.826738 
L 245.721903 16.826738 
L 245.721903 10.995738 
L 229.061903 10.995738 
z
" style="fill: #1f77b4; stroke: #ffffff; stroke-linejoin: miter"/>
    </g>
    <g id="text_17">
     <!-- annual returns -->
     <g transform="translate(252.385903 16.826738) scale(0.0833 -0.0833)">
      <defs>
       <path id="DejaVuSans-75" d="M 544 1381 
L 544 3500 
L 1119 3500 
L 1119 1403 
Q 1119 906 1312 657 
Q 1506 409 1894 409 
Q 2359 409 2629 706 
Q 2900 1003 2900 1516 
L 2900 3500 
L 3475 3500 
L 3475 0 
L 2900 0 
L 2900 538 
Q 2691 219 2414 64 
Q 2138 -91 1772 -91 
Q 1169 -91 856 284 
Q 544 659 544 1381 
z
M 1991 3584 
L 1991 3584 
z
" transform="scale(0.015625)"/>
      </defs>
      <use xlink:href="#DejaVuSans-61"/>
      <use xlink:href="#DejaVuSans-6e" x="61.279297"/>
      <use xlink:href="#DejaVuSans-6e" x="124.658203"/>
      <use xlink:href="#DejaVuSans-75" x="188.037109"/>
      <use xlink:href="#DejaVuSans-61" x="251.416016"/>
      <use xlink:href="#DejaVuSans-6c" x="312.695312"/>
      <use xlink:href="#DejaVuSans-20" x="340.478516"/>
      <use xlink:href="#DejaVuSans-72" x="372.265625"/>
      <use xlink:href="#DejaVuSans-65" x="411.128906"/>
      <use xlink:href="#DejaVuSans-74" x="472.652344"/>
      <use xlink:href="#DejaVuSans-75" x="511.861328"/>
      <use xlink:href="#DejaVuSans-72" x="575.240234"/>
      <use xlink:href="#DejaVuSans-6e" x="614.603516"/>
      <use xlink:href="#DejaVuSans-73" x="677.982422"/>
     </g>
    </g>
    <g id="line2d_17">
     <path d="M 229.061903 26.138117 
L 237.391903 26.138117 
L 245.721903 26.138117 
" style="fill: none; stroke: #32cd32; stroke-width: 1.5; stroke-linecap: square"/>
    </g>
    <g id="text_18">
     <!-- annual returns KDE -->
     <g transform="translate(252.385903 29.053617) scale(0.0833 -0.0833)">
      <defs>
       <path id="DejaVuSans-4b" d="M 628 4666 
L 1259 4666 
L 1259 2694 
L 3353 4666 
L 4166 4666 
L 1850 2491 
L 4331 0 
L 3500 0 
L 1259 2247 
L 1259 0 
L 628 0 
L 628 4666 
z
" transform="scale(0.015625)"/>
       <path id="DejaVuSans-44" d="M 1259 4147 
L 1259 519 
L 2022 519 
Q 2988 519 3436 956 
Q 3884 1394 3884 2338 
Q 3884 3275 3436 3711 
Q 2988 4147 2022 4147 
L 1259 4147 
z
M 628 4666 
L 1925 4666 
Q 3281 4666 3915 4102 
Q 4550 3538 4550 2338 
Q 4550 1131 3912 565 
Q 3275 0 1925 0 
L 628 0 
L 628 4666 
z
" transform="scale(0.015625)"/>
       <path id="DejaVuSans-45" d="M 628 4666 
L 3578 4666 
L 3578 4134 
L 1259 4134 
L 1259 2753 
L 3481 2753 
L 3481 2222 
L 1259 2222 
L 1259 531 
L 3634 531 
L 3634 0 
L 628 0 
L 628 4666 
z
" transform="scale(0.015625)"/>
      </defs>
      <use xlink:href="#DejaVuSans-61"/>
      <use xlink:href="#DejaVuSans-6e" x="61.279297"/>
      <use xlink:href="#DejaVuSans-6e" x="124.658203"/>
      <use xlink:href="#DejaVuSans-75" x="188.037109"/>
      <use xlink:href="#DejaVuSans-61" x="251.416016"/>
      <use xlink:href="#DejaVuSans-6c" x="312.695312"/>
      <use xlink:href="#DejaVuSans-20" x="340.478516"/>
      <use xlink:href="#DejaVuSans-72" x="372.265625"/>
      <use xlink:href="#DejaVuSans-65" x="411.128906"/>
      <use xlink:href="#DejaVuSans-74" x="472.652344"/>
      <use xlink:href="#DejaVuSans-75" x="511.861328"/>
      <use xlink:href="#DejaVuSans-72" x="575.240234"/>
      <use xlink:href="#DejaVuSans-6e" x="614.603516"/>
      <use xlink:href="#DejaVuSans-73" x="677.982422"/>
      <use xlink:href="#DejaVuSans-20" x="730.082031"/>
      <use xlink:href="#DejaVuSans-4b" x="761.869141"/>
      <use xlink:href="#DejaVuSans-44" x="827.445312"/>
      <use xlink:href="#DejaVuSans-45" x="904.447266"/>
     </g>
    </g>
   </g>
  </g>
 </g>
 <defs>
  <clipPath id="pefa659245b">
   <rect x="45.909346" y="3.00024" width="294.574116" height="238.137642"/>
  </clipPath>
 </defs>
</svg>
