<?xml version="1.0" encoding="utf-8" standalone="no"?>
<!DOCTYPE svg PUBLIC "-//W3C//DTD SVG 1.1//EN"
  "http://www.w3.org/Graphics/SVG/1.1/DTD/svg11.dtd">
<svg xmlns:xlink="http://www.w3.org/1999/xlink" width="345.6pt" height="259.2pt" viewBox="0 0 345.6 259.2" xmlns="http://www.w3.org/2000/svg" version="1.1">
 <metadata>
  <rdf:RDF xmlns:dc="http://purl.org/dc/elements/1.1/" xmlns:cc="http://creativecommons.org/ns#" xmlns:rdf="http://www.w3.org/1999/02/22-rdf-syntax-ns#">
   <cc:Work>
    <dc:type rdf:resource="http://purl.org/dc/dcmitype/StillImage"/>
    <dc:date>2024-08-15T09:38:02.540777</dc:date>
    <dc:format>image/svg+xml</dc:format>
    <dc:creator>
     <cc:Agent>
      <dc:title>Matplotlib v3.7.2, https://matplotlib.org/</dc:title>
     </cc:Agent>
    </dc:creator>
   </cc:Work>
  </rdf:RDF>
 </metadata>
 <defs>
  <style type="text/css">*{stroke-linejoin: round; stroke-linecap: butt}</style>
 </defs>
 <g id="figure_1">
  <g id="patch_1">
   <path d="M 0 259.2 
L 345.6 259.2 
L 345.6 0 
L 0 0 
z
" style="fill: #202020"/>
  </g>
  <g id="axes_1">
   <g id="patch_2">
    <path d="M 35.309421 241.137882 
L 342.59976 241.137882 
L 342.59976 3.00024 
L 35.309421 3.00024 
z
" style="fill: #303030"/>
   </g>
   <g id="patch_3">
    <path d="M 49.277164 241.137882 
L 53.856752 241.137882 
L 53.856752 235.801464 
L 49.277164 235.801464 
z
" clip-path="url(#p5a83ff1694)" style="fill: #1f77b4; stroke: #303030; stroke-linejoin: miter"/>
   </g>
   <g id="patch_4">
    <path d="M 53.856752 241.137882 
L 58.436339 241.137882 
L 58.436339 238.469673 
L 53.856752 238.469673 
z
" clip-path="url(#p5a83ff1694)" style="fill: #1f77b4; stroke: #303030; stroke-linejoin: miter"/>
   </g>
   <g id="patch_5">
    <path d="M 58.436339 241.137882 
L 63.015927 241.137882 
L 63.015927 235.801464 
L 58.436339 235.801464 
z
" clip-path="url(#p5a83ff1694)" style="fill: #1f77b4; stroke: #303030; stroke-linejoin: miter"/>
   </g>
   <g id="patch_6">
    <path d="M 63.015927 241.137882 
L 67.595515 241.137882 
L 67.595515 238.469673 
L 63.015927 238.469673 
z
" clip-path="url(#p5a83ff1694)" style="fill: #1f77b4; stroke: #303030; stroke-linejoin: miter"/>
   </g>
   <g id="patch_7">
    <path d="M 67.595515 241.137882 
L 72.175103 241.137882 
L 72.175103 241.137882 
L 67.595515 241.137882 
z
" clip-path="url(#p5a83ff1694)" style="fill: #1f77b4; stroke: #303030; stroke-linejoin: miter"/>
   </g>
   <g id="patch_8">
    <path d="M 72.175103 241.137882 
L 76.75469 241.137882 
L 76.75469 233.133255 
L 72.175103 233.133255 
z
" clip-path="url(#p5a83ff1694)" style="fill: #1f77b4; stroke: #303030; stroke-linejoin: miter"/>
   </g>
   <g id="patch_9">
    <path d="M 76.75469 241.137882 
L 81.334278 241.137882 
L 81.334278 225.128629 
L 76.75469 225.128629 
z
" clip-path="url(#p5a83ff1694)" style="fill: #1f77b4; stroke: #303030; stroke-linejoin: miter"/>
   </g>
   <g id="patch_10">
    <path d="M 81.334278 241.137882 
L 85.913866 241.137882 
L 85.913866 230.465046 
L 81.334278 230.465046 
z
" clip-path="url(#p5a83ff1694)" style="fill: #1f77b4; stroke: #303030; stroke-linejoin: miter"/>
   </g>
   <g id="patch_11">
    <path d="M 85.913866 241.137882 
L 90.493454 241.137882 
L 90.493454 230.465046 
L 85.913866 230.465046 
z
" clip-path="url(#p5a83ff1694)" style="fill: #1f77b4; stroke: #303030; stroke-linejoin: miter"/>
   </g>
   <g id="patch_12">
    <path d="M 90.493454 241.137882 
L 95.073042 241.137882 
L 95.073042 227.796838 
L 90.493454 227.796838 
z
" clip-path="url(#p5a83ff1694)" style="fill: #1f77b4; stroke: #303030; stroke-linejoin: miter"/>
   </g>
   <g id="patch_13">
    <path d="M 95.073042 241.137882 
L 99.652629 241.137882 
L 99.652629 209.119375 
L 95.073042 209.119375 
z
" clip-path="url(#p5a83ff1694)" style="fill: #1f77b4; stroke: #303030; stroke-linejoin: miter"/>
   </g>
   <g id="patch_14">
    <path d="M 99.652629 241.137882 
L 104.232217 241.137882 
L 104.232217 174.43266 
L 99.652629 174.43266 
z
" clip-path="url(#p5a83ff1694)" style="fill: #1f77b4; stroke: #303030; stroke-linejoin: miter"/>
   </g>
   <g id="patch_15">
    <path d="M 104.232217 241.137882 
L 108.811805 241.137882 
L 108.811805 177.100869 
L 104.232217 177.100869 
z
" clip-path="url(#p5a83ff1694)" style="fill: #1f77b4; stroke: #303030; stroke-linejoin: miter"/>
   </g>
   <g id="patch_16">
    <path d="M 108.811805 241.137882 
L 113.391393 241.137882 
L 113.391393 145.082362 
L 108.811805 145.082362 
z
" clip-path="url(#p5a83ff1694)" style="fill: #1f77b4; stroke: #303030; stroke-linejoin: miter"/>
   </g>
   <g id="patch_17">
    <path d="M 113.391393 241.137882 
L 117.97098 241.137882 
L 117.97098 131.741318 
L 113.391393 131.741318 
z
" clip-path="url(#p5a83ff1694)" style="fill: #1f77b4; stroke: #303030; stroke-linejoin: miter"/>
   </g>
   <g id="patch_18">
    <path d="M 117.97098 241.137882 
L 122.550568 241.137882 
L 122.550568 14.340128 
L 117.97098 14.340128 
z
" clip-path="url(#p5a83ff1694)" style="fill: #1f77b4; stroke: #303030; stroke-linejoin: miter"/>
   </g>
   <g id="patch_19">
    <path d="M 122.550568 241.137882 
L 127.130156 241.137882 
L 127.130156 67.704305 
L 122.550568 67.704305 
z
" clip-path="url(#p5a83ff1694)" style="fill: #1f77b4; stroke: #303030; stroke-linejoin: miter"/>
   </g>
   <g id="patch_20">
    <path d="M 127.130156 241.137882 
L 131.709744 241.137882 
L 131.709744 105.059229 
L 127.130156 105.059229 
z
" clip-path="url(#p5a83ff1694)" style="fill: #1f77b4; stroke: #303030; stroke-linejoin: miter"/>
   </g>
   <g id="patch_21">
    <path d="M 131.709744 241.137882 
L 136.289331 241.137882 
L 136.289331 145.082362 
L 131.709744 145.082362 
z
" clip-path="url(#p5a83ff1694)" style="fill: #1f77b4; stroke: #303030; stroke-linejoin: miter"/>
   </g>
   <g id="patch_22">
    <path d="M 136.289331 241.137882 
L 140.868919 241.137882 
L 140.868919 174.43266 
L 136.289331 174.43266 
z
" clip-path="url(#p5a83ff1694)" style="fill: #1f77b4; stroke: #303030; stroke-linejoin: miter"/>
   </g>
   <g id="patch_23">
    <path d="M 140.868919 241.137882 
L 145.448507 241.137882 
L 145.448507 193.110122 
L 140.868919 193.110122 
z
" clip-path="url(#p5a83ff1694)" style="fill: #1f77b4; stroke: #303030; stroke-linejoin: miter"/>
   </g>
   <g id="patch_24">
    <path d="M 145.448507 241.137882 
L 150.028095 241.137882 
L 150.028095 211.787584 
L 145.448507 211.787584 
z
" clip-path="url(#p5a83ff1694)" style="fill: #1f77b4; stroke: #303030; stroke-linejoin: miter"/>
   </g>
   <g id="patch_25">
    <path d="M 150.028095 241.137882 
L 154.607682 241.137882 
L 154.607682 230.465046 
L 150.028095 230.465046 
z
" clip-path="url(#p5a83ff1694)" style="fill: #1f77b4; stroke: #303030; stroke-linejoin: miter"/>
   </g>
   <g id="patch_26">
    <path d="M 154.607682 241.137882 
L 159.18727 241.137882 
L 159.18727 219.792211 
L 154.607682 219.792211 
z
" clip-path="url(#p5a83ff1694)" style="fill: #1f77b4; stroke: #303030; stroke-linejoin: miter"/>
   </g>
   <g id="patch_27">
    <path d="M 159.18727 241.137882 
L 163.766858 241.137882 
L 163.766858 238.469673 
L 159.18727 238.469673 
z
" clip-path="url(#p5a83ff1694)" style="fill: #1f77b4; stroke: #303030; stroke-linejoin: miter"/>
   </g>
   <g id="patch_28">
    <path d="M 163.766858 241.137882 
L 168.346446 241.137882 
L 168.346446 227.796838 
L 163.766858 227.796838 
z
" clip-path="url(#p5a83ff1694)" style="fill: #1f77b4; stroke: #303030; stroke-linejoin: miter"/>
   </g>
   <g id="patch_29">
    <path d="M 168.346446 241.137882 
L 172.926033 241.137882 
L 172.926033 238.469673 
L 168.346446 238.469673 
z
" clip-path="url(#p5a83ff1694)" style="fill: #1f77b4; stroke: #303030; stroke-linejoin: miter"/>
   </g>
   <g id="patch_30">
    <path d="M 172.926033 241.137882 
L 177.505621 241.137882 
L 177.505621 238.469673 
L 172.926033 238.469673 
z
" clip-path="url(#p5a83ff1694)" style="fill: #1f77b4; stroke: #303030; stroke-linejoin: miter"/>
   </g>
   <g id="patch_31">
    <path d="M 177.505621 241.137882 
L 182.085209 241.137882 
L 182.085209 241.137882 
L 177.505621 241.137882 
z
" clip-path="url(#p5a83ff1694)" style="fill: #1f77b4; stroke: #303030; stroke-linejoin: miter"/>
   </g>
   <g id="patch_32">
    <path d="M 182.085209 241.137882 
L 186.664797 241.137882 
L 186.664797 238.469673 
L 182.085209 238.469673 
z
" clip-path="url(#p5a83ff1694)" style="fill: #1f77b4; stroke: #303030; stroke-linejoin: miter"/>
   </g>
   <g id="patch_33">
    <path d="M 186.664797 241.137882 
L 191.244385 241.137882 
L 191.244385 241.137882 
L 186.664797 241.137882 
z
" clip-path="url(#p5a83ff1694)" style="fill: #1f77b4; stroke: #303030; stroke-linejoin: miter"/>
   </g>
   <g id="patch_34">
    <path d="M 191.244385 241.137882 
L 195.823972 241.137882 
L 195.823972 241.137882 
L 191.244385 241.137882 
z
" clip-path="url(#p5a83ff1694)" style="fill: #1f77b4; stroke: #303030; stroke-linejoin: miter"/>
   </g>
   <g id="patch_35">
    <path d="M 195.823972 241.137882 
L 200.40356 241.137882 
L 200.40356 230.465046 
L 195.823972 230.465046 
z
" clip-path="url(#p5a83ff1694)" style="fill: #1f77b4; stroke: #303030; stroke-linejoin: miter"/>
   </g>
   <g id="patch_36">
    <path d="M 200.40356 241.137882 
L 204.983148 241.137882 
L 204.983148 238.469673 
L 200.40356 238.469673 
z
" clip-path="url(#p5a83ff1694)" style="fill: #1f77b4; stroke: #303030; stroke-linejoin: miter"/>
   </g>
   <g id="patch_37">
    <path d="M 204.983148 241.137882 
L 209.562736 241.137882 
L 209.562736 241.137882 
L 204.983148 241.137882 
z
" clip-path="url(#p5a83ff1694)" style="fill: #1f77b4; stroke: #303030; stroke-linejoin: miter"/>
   </g>
   <g id="patch_38">
    <path d="M 209.562736 241.137882 
L 214.142323 241.137882 
L 214.142323 241.137882 
L 209.562736 241.137882 
z
" clip-path="url(#p5a83ff1694)" style="fill: #1f77b4; stroke: #303030; stroke-linejoin: miter"/>
   </g>
   <g id="patch_39">
    <path d="M 214.142323 241.137882 
L 218.721911 241.137882 
L 218.721911 241.137882 
L 214.142323 241.137882 
z
" clip-path="url(#p5a83ff1694)" style="fill: #1f77b4; stroke: #303030; stroke-linejoin: miter"/>
   </g>
   <g id="patch_40">
    <path d="M 218.721911 241.137882 
L 223.301499 241.137882 
L 223.301499 241.137882 
L 218.721911 241.137882 
z
" clip-path="url(#p5a83ff1694)" style="fill: #1f77b4; stroke: #303030; stroke-linejoin: miter"/>
   </g>
   <g id="patch_41">
    <path d="M 223.301499 241.137882 
L 227.881087 241.137882 
L 227.881087 241.137882 
L 223.301499 241.137882 
z
" clip-path="url(#p5a83ff1694)" style="fill: #1f77b4; stroke: #303030; stroke-linejoin: miter"/>
   </g>
   <g id="patch_42">
    <path d="M 227.881087 241.137882 
L 232.460674 241.137882 
L 232.460674 241.137882 
L 227.881087 241.137882 
z
" clip-path="url(#p5a83ff1694)" style="fill: #1f77b4; stroke: #303030; stroke-linejoin: miter"/>
   </g>
   <g id="patch_43">
    <path d="M 232.460674 241.137882 
L 237.040262 241.137882 
L 237.040262 241.137882 
L 232.460674 241.137882 
z
" clip-path="url(#p5a83ff1694)" style="fill: #1f77b4; stroke: #303030; stroke-linejoin: miter"/>
   </g>
   <g id="patch_44">
    <path d="M 237.040262 241.137882 
L 241.61985 241.137882 
L 241.61985 241.137882 
L 237.040262 241.137882 
z
" clip-path="url(#p5a83ff1694)" style="fill: #1f77b4; stroke: #303030; stroke-linejoin: miter"/>
   </g>
   <g id="patch_45">
    <path d="M 241.61985 241.137882 
L 246.199438 241.137882 
L 246.199438 241.137882 
L 241.61985 241.137882 
z
" clip-path="url(#p5a83ff1694)" style="fill: #1f77b4; stroke: #303030; stroke-linejoin: miter"/>
   </g>
   <g id="patch_46">
    <path d="M 246.199438 241.137882 
L 250.779025 241.137882 
L 250.779025 241.137882 
L 246.199438 241.137882 
z
" clip-path="url(#p5a83ff1694)" style="fill: #1f77b4; stroke: #303030; stroke-linejoin: miter"/>
   </g>
   <g id="patch_47">
    <path d="M 250.779025 241.137882 
L 255.358613 241.137882 
L 255.358613 241.137882 
L 250.779025 241.137882 
z
" clip-path="url(#p5a83ff1694)" style="fill: #1f77b4; stroke: #303030; stroke-linejoin: miter"/>
   </g>
   <g id="patch_48">
    <path d="M 255.358613 241.137882 
L 259.938201 241.137882 
L 259.938201 241.137882 
L 255.358613 241.137882 
z
" clip-path="url(#p5a83ff1694)" style="fill: #1f77b4; stroke: #303030; stroke-linejoin: miter"/>
   </g>
   <g id="patch_49">
    <path d="M 259.938201 241.137882 
L 264.517789 241.137882 
L 264.517789 241.137882 
L 259.938201 241.137882 
z
" clip-path="url(#p5a83ff1694)" style="fill: #1f77b4; stroke: #303030; stroke-linejoin: miter"/>
   </g>
   <g id="patch_50">
    <path d="M 264.517789 241.137882 
L 269.097376 241.137882 
L 269.097376 241.137882 
L 264.517789 241.137882 
z
" clip-path="url(#p5a83ff1694)" style="fill: #1f77b4; stroke: #303030; stroke-linejoin: miter"/>
   </g>
   <g id="patch_51">
    <path d="M 269.097376 241.137882 
L 273.676964 241.137882 
L 273.676964 241.137882 
L 269.097376 241.137882 
z
" clip-path="url(#p5a83ff1694)" style="fill: #1f77b4; stroke: #303030; stroke-linejoin: miter"/>
   </g>
   <g id="patch_52">
    <path d="M 273.676964 241.137882 
L 278.256552 241.137882 
L 278.256552 241.137882 
L 273.676964 241.137882 
z
" clip-path="url(#p5a83ff1694)" style="fill: #1f77b4; stroke: #303030; stroke-linejoin: miter"/>
   </g>
   <g id="patch_53">
    <path d="M 278.256552 241.137882 
L 282.83614 241.137882 
L 282.83614 241.137882 
L 278.256552 241.137882 
z
" clip-path="url(#p5a83ff1694)" style="fill: #1f77b4; stroke: #303030; stroke-linejoin: miter"/>
   </g>
   <g id="patch_54">
    <path d="M 282.83614 241.137882 
L 287.415727 241.137882 
L 287.415727 241.137882 
L 282.83614 241.137882 
z
" clip-path="url(#p5a83ff1694)" style="fill: #1f77b4; stroke: #303030; stroke-linejoin: miter"/>
   </g>
   <g id="patch_55">
    <path d="M 287.415727 241.137882 
L 291.995315 241.137882 
L 291.995315 241.137882 
L 287.415727 241.137882 
z
" clip-path="url(#p5a83ff1694)" style="fill: #1f77b4; stroke: #303030; stroke-linejoin: miter"/>
   </g>
   <g id="patch_56">
    <path d="M 291.995315 241.137882 
L 296.574903 241.137882 
L 296.574903 241.137882 
L 291.995315 241.137882 
z
" clip-path="url(#p5a83ff1694)" style="fill: #1f77b4; stroke: #303030; stroke-linejoin: miter"/>
   </g>
   <g id="patch_57">
    <path d="M 296.574903 241.137882 
L 301.154491 241.137882 
L 301.154491 241.137882 
L 296.574903 241.137882 
z
" clip-path="url(#p5a83ff1694)" style="fill: #1f77b4; stroke: #303030; stroke-linejoin: miter"/>
   </g>
   <g id="patch_58">
    <path d="M 301.154491 241.137882 
L 305.734079 241.137882 
L 305.734079 241.137882 
L 301.154491 241.137882 
z
" clip-path="url(#p5a83ff1694)" style="fill: #1f77b4; stroke: #303030; stroke-linejoin: miter"/>
   </g>
   <g id="patch_59">
    <path d="M 305.734079 241.137882 
L 310.313666 241.137882 
L 310.313666 241.137882 
L 305.734079 241.137882 
z
" clip-path="url(#p5a83ff1694)" style="fill: #1f77b4; stroke: #303030; stroke-linejoin: miter"/>
   </g>
   <g id="patch_60">
    <path d="M 310.313666 241.137882 
L 314.893254 241.137882 
L 314.893254 241.137882 
L 310.313666 241.137882 
z
" clip-path="url(#p5a83ff1694)" style="fill: #1f77b4; stroke: #303030; stroke-linejoin: miter"/>
   </g>
   <g id="patch_61">
    <path d="M 314.893254 241.137882 
L 319.472842 241.137882 
L 319.472842 241.137882 
L 314.893254 241.137882 
z
" clip-path="url(#p5a83ff1694)" style="fill: #1f77b4; stroke: #303030; stroke-linejoin: miter"/>
   </g>
   <g id="patch_62">
    <path d="M 319.472842 241.137882 
L 324.05243 241.137882 
L 324.05243 241.137882 
L 319.472842 241.137882 
z
" clip-path="url(#p5a83ff1694)" style="fill: #1f77b4; stroke: #303030; stroke-linejoin: miter"/>
   </g>
   <g id="patch_63">
    <path d="M 324.05243 241.137882 
L 328.632017 241.137882 
L 328.632017 238.469673 
L 324.05243 238.469673 
z
" clip-path="url(#p5a83ff1694)" style="fill: #1f77b4; stroke: #303030; stroke-linejoin: miter"/>
   </g>
   <g id="matplotlib.axis_1">
    <g id="xtick_1">
     <g id="line2d_1">
      <defs>
       <path id="m5bc7027c98" d="M 0 0 
L 0 3.5 
" style="stroke: #666666; stroke-width: 0.8"/>
      </defs>
      <g>
       <use xlink:href="#m5bc7027c98" x="48.065922" y="241.137882" style="fill: #666666; stroke: #666666; stroke-width: 0.8"/>
      </g>
     </g>
     <g id="text_1">
      <!-- −5.0 -->
      <g style="fill: #666666" transform="translate(37.95213 254.46738) scale(0.0833 -0.0833)">
       <defs>
        <path id="DejaVuSans-2212" d="M 678 2272 
L 4684 2272 
L 4684 1741 
L 678 1741 
L 678 2272 
z
" transform="scale(0.015625)"/>
        <path id="DejaVuSans-35" d="M 691 4666 
L 3169 4666 
L 3169 4134 
L 1269 4134 
L 1269 2991 
Q 1406 3038 1543 3061 
Q 1681 3084 1819 3084 
Q 2600 3084 3056 2656 
Q 3513 2228 3513 1497 
Q 3513 744 3044 326 
Q 2575 -91 1722 -91 
Q 1428 -91 1123 -41 
Q 819 9 494 109 
L 494 744 
Q 775 591 1075 516 
Q 1375 441 1709 441 
Q 2250 441 2565 725 
Q 2881 1009 2881 1497 
Q 2881 1984 2565 2268 
Q 2250 2553 1709 2553 
Q 1456 2553 1204 2497 
Q 953 2441 691 2322 
L 691 4666 
z
" transform="scale(0.015625)"/>
        <path id="DejaVuSans-2e" d="M 684 794 
L 1344 794 
L 1344 0 
L 684 0 
L 684 794 
z
" transform="scale(0.015625)"/>
        <path id="DejaVuSans-30" d="M 2034 4250 
Q 1547 4250 1301 3770 
Q 1056 3291 1056 2328 
Q 1056 1369 1301 889 
Q 1547 409 2034 409 
Q 2525 409 2770 889 
Q 3016 1369 3016 2328 
Q 3016 3291 2770 3770 
Q 2525 4250 2034 4250 
z
M 2034 4750 
Q 2819 4750 3233 4129 
Q 3647 3509 3647 2328 
Q 3647 1150 3233 529 
Q 2819 -91 2034 -91 
Q 1250 -91 836 529 
Q 422 1150 422 2328 
Q 422 3509 836 4129 
Q 1250 4750 2034 4750 
z
" transform="scale(0.015625)"/>
       </defs>
       <use xlink:href="#DejaVuSans-2212"/>
       <use xlink:href="#DejaVuSans-35" x="83.789062"/>
       <use xlink:href="#DejaVuSans-2e" x="147.412109"/>
       <use xlink:href="#DejaVuSans-30" x="179.199219"/>
      </g>
     </g>
    </g>
    <g id="xtick_2">
     <g id="line2d_2">
      <g>
       <use xlink:href="#m5bc7027c98" x="85.285575" y="241.137882" style="fill: #666666; stroke: #666666; stroke-width: 0.8"/>
      </g>
     </g>
     <g id="text_2">
      <!-- −2.5 -->
      <g style="fill: #666666" transform="translate(75.171784 254.46738) scale(0.0833 -0.0833)">
       <defs>
        <path id="DejaVuSans-32" d="M 1228 531 
L 3431 531 
L 3431 0 
L 469 0 
L 469 531 
Q 828 903 1448 1529 
Q 2069 2156 2228 2338 
Q 2531 2678 2651 2914 
Q 2772 3150 2772 3378 
Q 2772 3750 2511 3984 
Q 2250 4219 1831 4219 
Q 1534 4219 1204 4116 
Q 875 4013 500 3803 
L 500 4441 
Q 881 4594 1212 4672 
Q 1544 4750 1819 4750 
Q 2544 4750 2975 4387 
Q 3406 4025 3406 3419 
Q 3406 3131 3298 2873 
Q 3191 2616 2906 2266 
Q 2828 2175 2409 1742 
Q 1991 1309 1228 531 
z
" transform="scale(0.015625)"/>
       </defs>
       <use xlink:href="#DejaVuSans-2212"/>
       <use xlink:href="#DejaVuSans-32" x="83.789062"/>
       <use xlink:href="#DejaVuSans-2e" x="147.412109"/>
       <use xlink:href="#DejaVuSans-35" x="179.199219"/>
      </g>
     </g>
    </g>
    <g id="xtick_3">
     <g id="line2d_3">
      <g>
       <use xlink:href="#m5bc7027c98" x="122.505229" y="241.137882" style="fill: #666666; stroke: #666666; stroke-width: 0.8"/>
      </g>
     </g>
     <g id="text_3">
      <!-- 0.0 -->
      <g style="fill: #666666" transform="translate(115.881577 254.46738) scale(0.0833 -0.0833)">
       <use xlink:href="#DejaVuSans-30"/>
       <use xlink:href="#DejaVuSans-2e" x="63.623047"/>
       <use xlink:href="#DejaVuSans-30" x="95.410156"/>
      </g>
     </g>
    </g>
    <g id="xtick_4">
     <g id="line2d_4">
      <g>
       <use xlink:href="#m5bc7027c98" x="159.724882" y="241.137882" style="fill: #666666; stroke: #666666; stroke-width: 0.8"/>
      </g>
     </g>
     <g id="text_4">
      <!-- 2.5 -->
      <g style="fill: #666666" transform="translate(153.101231 254.46738) scale(0.0833 -0.0833)">
       <use xlink:href="#DejaVuSans-32"/>
       <use xlink:href="#DejaVuSans-2e" x="63.623047"/>
       <use xlink:href="#DejaVuSans-35" x="95.410156"/>
      </g>
     </g>
    </g>
    <g id="xtick_5">
     <g id="line2d_5">
      <g>
       <use xlink:href="#m5bc7027c98" x="196.944536" y="241.137882" style="fill: #666666; stroke: #666666; stroke-width: 0.8"/>
      </g>
     </g>
     <g id="text_5">
      <!-- 5.0 -->
      <g style="fill: #666666" transform="translate(190.320884 254.46738) scale(0.0833 -0.0833)">
       <use xlink:href="#DejaVuSans-35"/>
       <use xlink:href="#DejaVuSans-2e" x="63.623047"/>
       <use xlink:href="#DejaVuSans-30" x="95.410156"/>
      </g>
     </g>
    </g>
    <g id="xtick_6">
     <g id="line2d_6">
      <g>
       <use xlink:href="#m5bc7027c98" x="234.164189" y="241.137882" style="fill: #666666; stroke: #666666; stroke-width: 0.8"/>
      </g>
     </g>
     <g id="text_6">
      <!-- 7.5 -->
      <g style="fill: #666666" transform="translate(227.540538 254.46738) scale(0.0833 -0.0833)">
       <defs>
        <path id="DejaVuSans-37" d="M 525 4666 
L 3525 4666 
L 3525 4397 
L 1831 0 
L 1172 0 
L 2766 4134 
L 525 4134 
L 525 4666 
z
" transform="scale(0.015625)"/>
       </defs>
       <use xlink:href="#DejaVuSans-37"/>
       <use xlink:href="#DejaVuSans-2e" x="63.623047"/>
       <use xlink:href="#DejaVuSans-35" x="95.410156"/>
      </g>
     </g>
    </g>
    <g id="xtick_7">
     <g id="line2d_7">
      <g>
       <use xlink:href="#m5bc7027c98" x="271.383843" y="241.137882" style="fill: #666666; stroke: #666666; stroke-width: 0.8"/>
      </g>
     </g>
     <g id="text_7">
      <!-- 10.0 -->
      <g style="fill: #666666" transform="translate(262.11021 254.46738) scale(0.0833 -0.0833)">
       <defs>
        <path id="DejaVuSans-31" d="M 794 531 
L 1825 531 
L 1825 4091 
L 703 3866 
L 703 4441 
L 1819 4666 
L 2450 4666 
L 2450 531 
L 3481 531 
L 3481 0 
L 794 0 
L 794 531 
z
" transform="scale(0.015625)"/>
       </defs>
       <use xlink:href="#DejaVuSans-31"/>
       <use xlink:href="#DejaVuSans-30" x="63.623047"/>
       <use xlink:href="#DejaVuSans-2e" x="127.246094"/>
       <use xlink:href="#DejaVuSans-30" x="159.033203"/>
      </g>
     </g>
    </g>
    <g id="xtick_8">
     <g id="line2d_8">
      <g>
       <use xlink:href="#m5bc7027c98" x="308.603496" y="241.137882" style="fill: #666666; stroke: #666666; stroke-width: 0.8"/>
      </g>
     </g>
     <g id="text_8">
      <!-- 12.5 -->
      <g style="fill: #666666" transform="translate(299.329863 254.46738) scale(0.0833 -0.0833)">
       <use xlink:href="#DejaVuSans-31"/>
       <use xlink:href="#DejaVuSans-32" x="63.623047"/>
       <use xlink:href="#DejaVuSans-2e" x="127.246094"/>
       <use xlink:href="#DejaVuSans-35" x="159.033203"/>
      </g>
     </g>
    </g>
   </g>
   <g id="matplotlib.axis_2">
    <g id="ytick_1">
     <g id="line2d_9">
      <defs>
       <path id="m66f0fe7486" d="M 0 0 
L -3.5 0 
" style="stroke: #666666; stroke-width: 0.8"/>
      </defs>
      <g>
       <use xlink:href="#m66f0fe7486" x="35.309421" y="241.137882" style="fill: #666666; stroke: #666666; stroke-width: 0.8"/>
      </g>
     </g>
     <g id="text_9">
      <!-- 0.0 -->
      <g style="fill: #666666" transform="translate(15.062118 244.302631) scale(0.0833 -0.0833)">
       <use xlink:href="#DejaVuSans-30"/>
       <use xlink:href="#DejaVuSans-2e" x="63.623047"/>
       <use xlink:href="#DejaVuSans-30" x="95.410156"/>
      </g>
     </g>
    </g>
    <g id="ytick_2">
     <g id="line2d_10">
      <g>
       <use xlink:href="#m66f0fe7486" x="35.309421" y="201.413307" style="fill: #666666; stroke: #666666; stroke-width: 0.8"/>
      </g>
     </g>
     <g id="text_10">
      <!-- 0.1 -->
      <g style="fill: #666666" transform="translate(15.062118 204.578057) scale(0.0833 -0.0833)">
       <use xlink:href="#DejaVuSans-30"/>
       <use xlink:href="#DejaVuSans-2e" x="63.623047"/>
       <use xlink:href="#DejaVuSans-31" x="95.410156"/>
      </g>
     </g>
    </g>
    <g id="ytick_3">
     <g id="line2d_11">
      <g>
       <use xlink:href="#m66f0fe7486" x="35.309421" y="161.688733" style="fill: #666666; stroke: #666666; stroke-width: 0.8"/>
      </g>
     </g>
     <g id="text_11">
      <!-- 0.2 -->
      <g style="fill: #666666" transform="translate(15.062118 164.853482) scale(0.0833 -0.0833)">
       <use xlink:href="#DejaVuSans-30"/>
       <use xlink:href="#DejaVuSans-2e" x="63.623047"/>
       <use xlink:href="#DejaVuSans-32" x="95.410156"/>
      </g>
     </g>
    </g>
    <g id="ytick_4">
     <g id="line2d_12">
      <g>
       <use xlink:href="#m66f0fe7486" x="35.309421" y="121.964158" style="fill: #666666; stroke: #666666; stroke-width: 0.8"/>
      </g>
     </g>
     <g id="text_12">
      <!-- 0.3 -->
      <g style="fill: #666666" transform="translate(15.062118 125.128907) scale(0.0833 -0.0833)">
       <defs>
        <path id="DejaVuSans-33" d="M 2597 2516 
Q 3050 2419 3304 2112 
Q 3559 1806 3559 1356 
Q 3559 666 3084 287 
Q 2609 -91 1734 -91 
Q 1441 -91 1130 -33 
Q 819 25 488 141 
L 488 750 
Q 750 597 1062 519 
Q 1375 441 1716 441 
Q 2309 441 2620 675 
Q 2931 909 2931 1356 
Q 2931 1769 2642 2001 
Q 2353 2234 1838 2234 
L 1294 2234 
L 1294 2753 
L 1863 2753 
Q 2328 2753 2575 2939 
Q 2822 3125 2822 3475 
Q 2822 3834 2567 4026 
Q 2313 4219 1838 4219 
Q 1578 4219 1281 4162 
Q 984 4106 628 3988 
L 628 4550 
Q 988 4650 1302 4700 
Q 1616 4750 1894 4750 
Q 2613 4750 3031 4423 
Q 3450 4097 3450 3541 
Q 3450 3153 3228 2886 
Q 3006 2619 2597 2516 
z
" transform="scale(0.015625)"/>
       </defs>
       <use xlink:href="#DejaVuSans-30"/>
       <use xlink:href="#DejaVuSans-2e" x="63.623047"/>
       <use xlink:href="#DejaVuSans-33" x="95.410156"/>
      </g>
     </g>
    </g>
    <g id="ytick_5">
     <g id="line2d_13">
      <g>
       <use xlink:href="#m66f0fe7486" x="35.309421" y="82.239584" style="fill: #666666; stroke: #666666; stroke-width: 0.8"/>
      </g>
     </g>
     <g id="text_13">
      <!-- 0.4 -->
      <g style="fill: #666666" transform="translate(15.062118 85.404333) scale(0.0833 -0.0833)">
       <defs>
        <path id="DejaVuSans-34" d="M 2419 4116 
L 825 1625 
L 2419 1625 
L 2419 4116 
z
M 2253 4666 
L 3047 4666 
L 3047 1625 
L 3713 1625 
L 3713 1100 
L 3047 1100 
L 3047 0 
L 2419 0 
L 2419 1100 
L 313 1100 
L 313 1709 
L 2253 4666 
z
" transform="scale(0.015625)"/>
       </defs>
       <use xlink:href="#DejaVuSans-30"/>
       <use xlink:href="#DejaVuSans-2e" x="63.623047"/>
       <use xlink:href="#DejaVuSans-34" x="95.410156"/>
      </g>
     </g>
    </g>
    <g id="ytick_6">
     <g id="line2d_14">
      <g>
       <use xlink:href="#m66f0fe7486" x="35.309421" y="42.515009" style="fill: #666666; stroke: #666666; stroke-width: 0.8"/>
      </g>
     </g>
     <g id="text_14">
      <!-- 0.5 -->
      <g style="fill: #666666" transform="translate(15.062118 45.679758) scale(0.0833 -0.0833)">
       <use xlink:href="#DejaVuSans-30"/>
       <use xlink:href="#DejaVuSans-2e" x="63.623047"/>
       <use xlink:href="#DejaVuSans-35" x="95.410156"/>
      </g>
     </g>
    </g>
    <g id="text_15">
     <!-- probability density -->
     <g style="fill: #666666" transform="translate(9.329738 160.884909) rotate(-90) scale(0.0833 -0.0833)">
      <defs>
       <path id="DejaVuSans-70" d="M 1159 525 
L 1159 -1331 
L 581 -1331 
L 581 3500 
L 1159 3500 
L 1159 2969 
Q 1341 3281 1617 3432 
Q 1894 3584 2278 3584 
Q 2916 3584 3314 3078 
Q 3713 2572 3713 1747 
Q 3713 922 3314 415 
Q 2916 -91 2278 -91 
Q 1894 -91 1617 61 
Q 1341 213 1159 525 
z
M 3116 1747 
Q 3116 2381 2855 2742 
Q 2594 3103 2138 3103 
Q 1681 3103 1420 2742 
Q 1159 2381 1159 1747 
Q 1159 1113 1420 752 
Q 1681 391 2138 391 
Q 2594 391 2855 752 
Q 3116 1113 3116 1747 
z
" transform="scale(0.015625)"/>
       <path id="DejaVuSans-72" d="M 2631 2963 
Q 2534 3019 2420 3045 
Q 2306 3072 2169 3072 
Q 1681 3072 1420 2755 
Q 1159 2438 1159 1844 
L 1159 0 
L 581 0 
L 581 3500 
L 1159 3500 
L 1159 2956 
Q 1341 3275 1631 3429 
Q 1922 3584 2338 3584 
Q 2397 3584 2469 3576 
Q 2541 3569 2628 3553 
L 2631 2963 
z
" transform="scale(0.015625)"/>
       <path id="DejaVuSans-6f" d="M 1959 3097 
Q 1497 3097 1228 2736 
Q 959 2375 959 1747 
Q 959 1119 1226 758 
Q 1494 397 1959 397 
Q 2419 397 2687 759 
Q 2956 1122 2956 1747 
Q 2956 2369 2687 2733 
Q 2419 3097 1959 3097 
z
M 1959 3584 
Q 2709 3584 3137 3096 
Q 3566 2609 3566 1747 
Q 3566 888 3137 398 
Q 2709 -91 1959 -91 
Q 1206 -91 779 398 
Q 353 888 353 1747 
Q 353 2609 779 3096 
Q 1206 3584 1959 3584 
z
" transform="scale(0.015625)"/>
       <path id="DejaVuSans-62" d="M 3116 1747 
Q 3116 2381 2855 2742 
Q 2594 3103 2138 3103 
Q 1681 3103 1420 2742 
Q 1159 2381 1159 1747 
Q 1159 1113 1420 752 
Q 1681 391 2138 391 
Q 2594 391 2855 752 
Q 3116 1113 3116 1747 
z
M 1159 2969 
Q 1341 3281 1617 3432 
Q 1894 3584 2278 3584 
Q 2916 3584 3314 3078 
Q 3713 2572 3713 1747 
Q 3713 922 3314 415 
Q 2916 -91 2278 -91 
Q 1894 -91 1617 61 
Q 1341 213 1159 525 
L 1159 0 
L 581 0 
L 581 4863 
L 1159 4863 
L 1159 2969 
z
" transform="scale(0.015625)"/>
       <path id="DejaVuSans-61" d="M 2194 1759 
Q 1497 1759 1228 1600 
Q 959 1441 959 1056 
Q 959 750 1161 570 
Q 1363 391 1709 391 
Q 2188 391 2477 730 
Q 2766 1069 2766 1631 
L 2766 1759 
L 2194 1759 
z
M 3341 1997 
L 3341 0 
L 2766 0 
L 2766 531 
Q 2569 213 2275 61 
Q 1981 -91 1556 -91 
Q 1019 -91 701 211 
Q 384 513 384 1019 
Q 384 1609 779 1909 
Q 1175 2209 1959 2209 
L 2766 2209 
L 2766 2266 
Q 2766 2663 2505 2880 
Q 2244 3097 1772 3097 
Q 1472 3097 1187 3025 
Q 903 2953 641 2809 
L 641 3341 
Q 956 3463 1253 3523 
Q 1550 3584 1831 3584 
Q 2591 3584 2966 3190 
Q 3341 2797 3341 1997 
z
" transform="scale(0.015625)"/>
       <path id="DejaVuSans-69" d="M 603 3500 
L 1178 3500 
L 1178 0 
L 603 0 
L 603 3500 
z
M 603 4863 
L 1178 4863 
L 1178 4134 
L 603 4134 
L 603 4863 
z
" transform="scale(0.015625)"/>
       <path id="DejaVuSans-6c" d="M 603 4863 
L 1178 4863 
L 1178 0 
L 603 0 
L 603 4863 
z
" transform="scale(0.015625)"/>
       <path id="DejaVuSans-74" d="M 1172 4494 
L 1172 3500 
L 2356 3500 
L 2356 3053 
L 1172 3053 
L 1172 1153 
Q 1172 725 1289 603 
Q 1406 481 1766 481 
L 2356 481 
L 2356 0 
L 1766 0 
Q 1100 0 847 248 
Q 594 497 594 1153 
L 594 3053 
L 172 3053 
L 172 3500 
L 594 3500 
L 594 4494 
L 1172 4494 
z
" transform="scale(0.015625)"/>
       <path id="DejaVuSans-79" d="M 2059 -325 
Q 1816 -950 1584 -1140 
Q 1353 -1331 966 -1331 
L 506 -1331 
L 506 -850 
L 844 -850 
Q 1081 -850 1212 -737 
Q 1344 -625 1503 -206 
L 1606 56 
L 191 3500 
L 800 3500 
L 1894 763 
L 2988 3500 
L 3597 3500 
L 2059 -325 
z
" transform="scale(0.015625)"/>
       <path id="DejaVuSans-20" transform="scale(0.015625)"/>
       <path id="DejaVuSans-64" d="M 2906 2969 
L 2906 4863 
L 3481 4863 
L 3481 0 
L 2906 0 
L 2906 525 
Q 2725 213 2448 61 
Q 2172 -91 1784 -91 
Q 1150 -91 751 415 
Q 353 922 353 1747 
Q 353 2572 751 3078 
Q 1150 3584 1784 3584 
Q 2172 3584 2448 3432 
Q 2725 3281 2906 2969 
z
M 947 1747 
Q 947 1113 1208 752 
Q 1469 391 1925 391 
Q 2381 391 2643 752 
Q 2906 1113 2906 1747 
Q 2906 2381 2643 2742 
Q 2381 3103 1925 3103 
Q 1469 3103 1208 2742 
Q 947 2381 947 1747 
z
" transform="scale(0.015625)"/>
       <path id="DejaVuSans-65" d="M 3597 1894 
L 3597 1613 
L 953 1613 
Q 991 1019 1311 708 
Q 1631 397 2203 397 
Q 2534 397 2845 478 
Q 3156 559 3463 722 
L 3463 178 
Q 3153 47 2828 -22 
Q 2503 -91 2169 -91 
Q 1331 -91 842 396 
Q 353 884 353 1716 
Q 353 2575 817 3079 
Q 1281 3584 2069 3584 
Q 2775 3584 3186 3129 
Q 3597 2675 3597 1894 
z
M 3022 2063 
Q 3016 2534 2758 2815 
Q 2500 3097 2075 3097 
Q 1594 3097 1305 2825 
Q 1016 2553 972 2059 
L 3022 2063 
z
" transform="scale(0.015625)"/>
       <path id="DejaVuSans-6e" d="M 3513 2113 
L 3513 0 
L 2938 0 
L 2938 2094 
Q 2938 2591 2744 2837 
Q 2550 3084 2163 3084 
Q 1697 3084 1428 2787 
Q 1159 2491 1159 1978 
L 1159 0 
L 581 0 
L 581 3500 
L 1159 3500 
L 1159 2956 
Q 1366 3272 1645 3428 
Q 1925 3584 2291 3584 
Q 2894 3584 3203 3211 
Q 3513 2838 3513 2113 
z
" transform="scale(0.015625)"/>
       <path id="DejaVuSans-73" d="M 2834 3397 
L 2834 2853 
Q 2591 2978 2328 3040 
Q 2066 3103 1784 3103 
Q 1356 3103 1142 2972 
Q 928 2841 928 2578 
Q 928 2378 1081 2264 
Q 1234 2150 1697 2047 
L 1894 2003 
Q 2506 1872 2764 1633 
Q 3022 1394 3022 966 
Q 3022 478 2636 193 
Q 2250 -91 1575 -91 
Q 1294 -91 989 -36 
Q 684 19 347 128 
L 347 722 
Q 666 556 975 473 
Q 1284 391 1588 391 
Q 1994 391 2212 530 
Q 2431 669 2431 922 
Q 2431 1156 2273 1281 
Q 2116 1406 1581 1522 
L 1381 1569 
Q 847 1681 609 1914 
Q 372 2147 372 2553 
Q 372 3047 722 3315 
Q 1072 3584 1716 3584 
Q 2034 3584 2315 3537 
Q 2597 3491 2834 3397 
z
" transform="scale(0.015625)"/>
      </defs>
      <use xlink:href="#DejaVuSans-70"/>
      <use xlink:href="#DejaVuSans-72" x="63.476562"/>
      <use xlink:href="#DejaVuSans-6f" x="102.339844"/>
      <use xlink:href="#DejaVuSans-62" x="163.521484"/>
      <use xlink:href="#DejaVuSans-61" x="226.998047"/>
      <use xlink:href="#DejaVuSans-62" x="288.277344"/>
      <use xlink:href="#DejaVuSans-69" x="351.753906"/>
      <use xlink:href="#DejaVuSans-6c" x="379.537109"/>
      <use xlink:href="#DejaVuSans-69" x="407.320312"/>
      <use xlink:href="#DejaVuSans-74" x="435.103516"/>
      <use xlink:href="#DejaVuSans-79" x="474.3125"/>
      <use xlink:href="#DejaVuSans-20" x="533.492188"/>
      <use xlink:href="#DejaVuSans-64" x="565.279297"/>
      <use xlink:href="#DejaVuSans-65" x="628.755859"/>
      <use xlink:href="#DejaVuSans-6e" x="690.279297"/>
      <use xlink:href="#DejaVuSans-73" x="753.658203"/>
      <use xlink:href="#DejaVuSans-69" x="805.757812"/>
      <use xlink:href="#DejaVuSans-74" x="833.541016"/>
      <use xlink:href="#DejaVuSans-79" x="872.75"/>
     </g>
    </g>
   </g>
   <g id="line2d_15">
    <path d="M 49.277164 237.802523 
L 52.073509 237.198823 
L 55.149488 236.773521 
L 58.505102 236.551041 
L 64.377426 236.269904 
L 66.055233 235.920768 
L 67.453406 235.422833 
L 68.851578 234.704269 
L 70.529385 233.553351 
L 72.486826 231.901306 
L 77.240613 227.736716 
L 79.198054 226.394276 
L 81.714765 224.983423 
L 83.95184 223.692598 
L 85.350013 222.648987 
L 86.468551 221.573034 
L 87.587089 220.205434 
L 88.705627 218.477478 
L 89.824165 216.327893 
L 90.942703 213.708425 
L 92.061241 210.589665 
L 93.459413 205.983028 
L 94.857585 200.636348 
L 96.535392 193.395385 
L 98.772468 182.748669 
L 101.848448 166.993462 
L 104.085524 154.579684 
L 106.042965 142.38611 
L 107.720772 130.393772 
L 109.398579 116.644398 
L 111.35602 98.376804 
L 114.152365 69.595156 
L 116.669076 44.504213 
L 118.067248 32.657896 
L 119.185786 24.947155 
L 120.024689 20.422045 
L 120.863593 17.100703 
L 121.422862 15.594709 
L 121.982131 14.672428 
L 122.261765 14.432432 
L 122.5414 14.340128 
L 122.821034 14.39513 
L 123.100669 14.596601 
L 123.659938 15.433394 
L 124.219207 16.835209 
L 124.778476 18.780479 
L 125.617379 22.656707 
L 126.456283 27.582923 
L 127.574821 35.561852 
L 128.972993 47.337017 
L 130.930434 66.025912 
L 137.082393 126.606226 
L 139.039835 143.280005 
L 140.997276 158.012788 
L 142.675083 169.08305 
L 144.35289 178.799133 
L 146.030697 187.279475 
L 147.708504 194.64293 
L 149.386311 200.991159 
L 151.064118 206.410887 
L 152.741924 210.988068 
L 154.419731 214.821389 
L 156.097538 218.025864 
L 157.775345 220.725275 
L 159.732787 223.39479 
L 161.969863 226.007046 
L 164.486573 228.587142 
L 167.282918 231.152725 
L 170.079263 233.418213 
L 172.316339 234.966173 
L 174.553414 236.240286 
L 176.79049 237.236336 
L 179.027566 237.97818 
L 181.264642 238.49295 
L 183.501718 238.782482 
L 185.45916 238.825756 
L 187.416601 238.643243 
L 189.374042 238.233065 
L 192.170387 237.377941 
L 194.966732 236.565394 
L 196.644539 236.290188 
L 198.322346 236.256507 
L 200.000153 236.475474 
L 201.957594 236.998521 
L 204.753939 238.027035 
L 208.668822 239.451156 
L 211.185532 240.136758 
L 213.702243 240.603967 
L 216.778222 240.927019 
L 220.693105 241.0893 
L 228.802505 241.137136 
L 314.091024 241.06498 
L 318.565176 240.840585 
L 324.4375 240.27185 
L 327.793114 240.06344 
L 328.632017 240.053743 
L 328.632017 240.053743 
" clip-path="url(#p5a83ff1694)" style="fill: none; stroke: #32cd32; stroke-width: 1.5; stroke-linecap: square"/>
   </g>
   <g id="patch_64">
    <path d="M 35.309421 241.137882 
L 35.309421 3.00024 
" style="fill: none; stroke: #000000; stroke-width: 0.8; stroke-linejoin: miter; stroke-linecap: square"/>
   </g>
   <g id="patch_65">
    <path d="M 342.59976 241.137882 
L 342.59976 3.00024 
" style="fill: none; stroke: #000000; stroke-width: 0.8; stroke-linejoin: miter; stroke-linecap: square"/>
   </g>
   <g id="patch_66">
    <path d="M 35.309421 241.137882 
L 342.59976 241.137882 
" style="fill: none; stroke: #000000; stroke-width: 0.8; stroke-linejoin: miter; stroke-linecap: square"/>
   </g>
   <g id="patch_67">
    <path d="M 35.309421 3.00024 
L 342.59976 3.00024 
" style="fill: none; stroke: #000000; stroke-width: 0.8; stroke-linejoin: miter; stroke-linecap: square"/>
   </g>
   <g id="legend_1">
    <g id="patch_68">
     <path d="M 223.593996 34.117996 
L 336.76876 34.117996 
Q 338.43476 34.117996 338.43476 32.451996 
L 338.43476 8.83124 
Q 338.43476 7.16524 336.76876 7.16524 
L 223.593996 7.16524 
Q 221.927996 7.16524 221.927996 8.83124 
L 221.927996 32.451996 
Q 221.927996 34.117996 223.593996 34.117996 
z
" style="fill: #303030; opacity: 0.7; stroke: #202020; stroke-linejoin: miter"/>
    </g>
    <g id="patch_69">
     <path d="M 225.259996 16.826738 
L 241.919996 16.826738 
L 241.919996 10.995738 
L 225.259996 10.995738 
z
" style="fill: #1f77b4; stroke: #303030; stroke-linejoin: miter"/>
    </g>
    <g id="text_16">
     <!-- monthly returns -->
     <g style="fill: #d0d0d0" transform="translate(248.583996 16.826738) scale(0.0833 -0.0833)">
      <defs>
       <path id="DejaVuSans-6d" d="M 3328 2828 
Q 3544 3216 3844 3400 
Q 4144 3584 4550 3584 
Q 5097 3584 5394 3201 
Q 5691 2819 5691 2113 
L 5691 0 
L 5113 0 
L 5113 2094 
Q 5113 2597 4934 2840 
Q 4756 3084 4391 3084 
Q 3944 3084 3684 2787 
Q 3425 2491 3425 1978 
L 3425 0 
L 2847 0 
L 2847 2094 
Q 2847 2600 2669 2842 
Q 2491 3084 2119 3084 
Q 1678 3084 1418 2786 
Q 1159 2488 1159 1978 
L 1159 0 
L 581 0 
L 581 3500 
L 1159 3500 
L 1159 2956 
Q 1356 3278 1631 3431 
Q 1906 3584 2284 3584 
Q 2666 3584 2933 3390 
Q 3200 3197 3328 2828 
z
" transform="scale(0.015625)"/>
       <path id="DejaVuSans-68" d="M 3513 2113 
L 3513 0 
L 2938 0 
L 2938 2094 
Q 2938 2591 2744 2837 
Q 2550 3084 2163 3084 
Q 1697 3084 1428 2787 
Q 1159 2491 1159 1978 
L 1159 0 
L 581 0 
L 581 4863 
L 1159 4863 
L 1159 2956 
Q 1366 3272 1645 3428 
Q 1925 3584 2291 3584 
Q 2894 3584 3203 3211 
Q 3513 2838 3513 2113 
z
" transform="scale(0.015625)"/>
       <path id="DejaVuSans-75" d="M 544 1381 
L 544 3500 
L 1119 3500 
L 1119 1403 
Q 1119 906 1312 657 
Q 1506 409 1894 409 
Q 2359 409 2629 706 
Q 2900 1003 2900 1516 
L 2900 3500 
L 3475 3500 
L 3475 0 
L 2900 0 
L 2900 538 
Q 2691 219 2414 64 
Q 2138 -91 1772 -91 
Q 1169 -91 856 284 
Q 544 659 544 1381 
z
M 1991 3584 
L 1991 3584 
z
" transform="scale(0.015625)"/>
      </defs>
      <use xlink:href="#DejaVuSans-6d"/>
      <use xlink:href="#DejaVuSans-6f" x="97.412109"/>
      <use xlink:href="#DejaVuSans-6e" x="158.59375"/>
      <use xlink:href="#DejaVuSans-74" x="221.972656"/>
      <use xlink:href="#DejaVuSans-68" x="261.181641"/>
      <use xlink:href="#DejaVuSans-6c" x="324.560547"/>
      <use xlink:href="#DejaVuSans-79" x="352.34375"/>
      <use xlink:href="#DejaVuSans-20" x="411.523438"/>
      <use xlink:href="#DejaVuSans-72" x="443.310547"/>
      <use xlink:href="#DejaVuSans-65" x="482.173828"/>
      <use xlink:href="#DejaVuSans-74" x="543.697266"/>
      <use xlink:href="#DejaVuSans-75" x="582.90625"/>
      <use xlink:href="#DejaVuSans-72" x="646.285156"/>
      <use xlink:href="#DejaVuSans-6e" x="685.648438"/>
      <use xlink:href="#DejaVuSans-73" x="749.027344"/>
     </g>
    </g>
    <g id="line2d_16">
     <path d="M 225.259996 26.138117 
L 233.589996 26.138117 
L 241.919996 26.138117 
" style="fill: none; stroke: #32cd32; stroke-width: 1.5; stroke-linecap: square"/>
    </g>
    <g id="text_17">
     <!-- monthly returns KDE -->
     <g style="fill: #d0d0d0" transform="translate(248.583996 29.053617) scale(0.0833 -0.0833)">
      <defs>
       <path id="DejaVuSans-4b" d="M 628 4666 
L 1259 4666 
L 1259 2694 
L 3353 4666 
L 4166 4666 
L 1850 2491 
L 4331 0 
L 3500 0 
L 1259 2247 
L 1259 0 
L 628 0 
L 628 4666 
z
" transform="scale(0.015625)"/>
       <path id="DejaVuSans-44" d="M 1259 4147 
L 1259 519 
L 2022 519 
Q 2988 519 3436 956 
Q 3884 1394 3884 2338 
Q 3884 3275 3436 3711 
Q 2988 4147 2022 4147 
L 1259 4147 
z
M 628 4666 
L 1925 4666 
Q 3281 4666 3915 4102 
Q 4550 3538 4550 2338 
Q 4550 1131 3912 565 
Q 3275 0 1925 0 
L 628 0 
L 628 4666 
z
" transform="scale(0.015625)"/>
       <path id="DejaVuSans-45" d="M 628 4666 
L 3578 4666 
L 3578 4134 
L 1259 4134 
L 1259 2753 
L 3481 2753 
L 3481 2222 
L 1259 2222 
L 1259 531 
L 3634 531 
L 3634 0 
L 628 0 
L 628 4666 
z
" transform="scale(0.015625)"/>
      </defs>
      <use xlink:href="#DejaVuSans-6d"/>
      <use xlink:href="#DejaVuSans-6f" x="97.412109"/>
      <use xlink:href="#DejaVuSans-6e" x="158.59375"/>
      <use xlink:href="#DejaVuSans-74" x="221.972656"/>
      <use xlink:href="#DejaVuSans-68" x="261.181641"/>
      <use xlink:href="#DejaVuSans-6c" x="324.560547"/>
      <use xlink:href="#DejaVuSans-79" x="352.34375"/>
      <use xlink:href="#DejaVuSans-20" x="411.523438"/>
      <use xlink:href="#DejaVuSans-72" x="443.310547"/>
      <use xlink:href="#DejaVuSans-65" x="482.173828"/>
      <use xlink:href="#DejaVuSans-74" x="543.697266"/>
      <use xlink:href="#DejaVuSans-75" x="582.90625"/>
      <use xlink:href="#DejaVuSans-72" x="646.285156"/>
      <use xlink:href="#DejaVuSans-6e" x="685.648438"/>
      <use xlink:href="#DejaVuSans-73" x="749.027344"/>
      <use xlink:href="#DejaVuSans-20" x="801.126953"/>
      <use xlink:href="#DejaVuSans-4b" x="832.914062"/>
      <use xlink:href="#DejaVuSans-44" x="898.490234"/>
      <use xlink:href="#DejaVuSans-45" x="975.492188"/>
     </g>
    </g>
   </g>
  </g>
 </g>
 <defs>
  <clipPath id="p5a83ff1694">
   <rect x="35.309421" y="3.00024" width="307.290339" height="238.137642"/>
  </clipPath>
 </defs>
</svg>
