<?xml version="1.0" encoding="utf-8" standalone="no"?>
<!DOCTYPE svg PUBLIC "-//W3C//DTD SVG 1.1//EN"
  "http://www.w3.org/Graphics/SVG/1.1/DTD/svg11.dtd">
<svg xmlns:xlink="http://www.w3.org/1999/xlink" width="345.6pt" height="259.2pt" viewBox="0 0 345.6 259.2" xmlns="http://www.w3.org/2000/svg" version="1.1">
 <metadata>
  <rdf:RDF xmlns:dc="http://purl.org/dc/elements/1.1/" xmlns:cc="http://creativecommons.org/ns#" xmlns:rdf="http://www.w3.org/1999/02/22-rdf-syntax-ns#">
   <cc:Work>
    <dc:type rdf:resource="http://purl.org/dc/dcmitype/StillImage"/>
    <dc:date>2024-08-15T09:37:54.382938</dc:date>
    <dc:format>image/svg+xml</dc:format>
    <dc:creator>
     <cc:Agent>
      <dc:title>Matplotlib v3.7.2, https://matplotlib.org/</dc:title>
     </cc:Agent>
    </dc:creator>
   </cc:Work>
  </rdf:RDF>
 </metadata>
 <defs>
  <style type="text/css">*{stroke-linejoin: round; stroke-linecap: butt}</style>
 </defs>
 <g id="figure_1">
  <g id="patch_1">
   <path d="M 0 259.2 
L 345.6 259.2 
L 345.6 0 
L 0 0 
z
" style="fill: #202020"/>
  </g>
  <g id="axes_1">
   <g id="patch_2">
    <path d="M 32.662043 241.137882 
L 342.59976 241.137882 
L 342.59976 4.495544 
L 32.662043 4.495544 
z
" style="fill: #303030"/>
   </g>
   <g id="patch_3">
    <path d="M 46.750121 241.137882 
L 51.369163 241.137882 
L 51.369163 235.834972 
L 46.750121 235.834972 
z
" clip-path="url(#p3a27bf06b6)" style="fill: #1f77b4; stroke: #303030; stroke-linejoin: miter"/>
   </g>
   <g id="patch_4">
    <path d="M 51.369163 241.137882 
L 55.988205 241.137882 
L 55.988205 238.486427 
L 51.369163 238.486427 
z
" clip-path="url(#p3a27bf06b6)" style="fill: #1f77b4; stroke: #303030; stroke-linejoin: miter"/>
   </g>
   <g id="patch_5">
    <path d="M 55.988205 241.137882 
L 60.607247 241.137882 
L 60.607247 235.834972 
L 55.988205 235.834972 
z
" clip-path="url(#p3a27bf06b6)" style="fill: #1f77b4; stroke: #303030; stroke-linejoin: miter"/>
   </g>
   <g id="patch_6">
    <path d="M 60.607247 241.137882 
L 65.226289 241.137882 
L 65.226289 238.486427 
L 60.607247 238.486427 
z
" clip-path="url(#p3a27bf06b6)" style="fill: #1f77b4; stroke: #303030; stroke-linejoin: miter"/>
   </g>
   <g id="patch_7">
    <path d="M 65.226289 241.137882 
L 69.845331 241.137882 
L 69.845331 241.137882 
L 65.226289 241.137882 
z
" clip-path="url(#p3a27bf06b6)" style="fill: #1f77b4; stroke: #303030; stroke-linejoin: miter"/>
   </g>
   <g id="patch_8">
    <path d="M 69.845331 241.137882 
L 74.464373 241.137882 
L 74.464373 233.183518 
L 69.845331 233.183518 
z
" clip-path="url(#p3a27bf06b6)" style="fill: #1f77b4; stroke: #303030; stroke-linejoin: miter"/>
   </g>
   <g id="patch_9">
    <path d="M 74.464373 241.137882 
L 79.083415 241.137882 
L 79.083415 225.229153 
L 74.464373 225.229153 
z
" clip-path="url(#p3a27bf06b6)" style="fill: #1f77b4; stroke: #303030; stroke-linejoin: miter"/>
   </g>
   <g id="patch_10">
    <path d="M 79.083415 241.137882 
L 83.702457 241.137882 
L 83.702457 230.532063 
L 79.083415 230.532063 
z
" clip-path="url(#p3a27bf06b6)" style="fill: #1f77b4; stroke: #303030; stroke-linejoin: miter"/>
   </g>
   <g id="patch_11">
    <path d="M 83.702457 241.137882 
L 88.321499 241.137882 
L 88.321499 230.532063 
L 83.702457 230.532063 
z
" clip-path="url(#p3a27bf06b6)" style="fill: #1f77b4; stroke: #303030; stroke-linejoin: miter"/>
   </g>
   <g id="patch_12">
    <path d="M 88.321499 241.137882 
L 92.940541 241.137882 
L 92.940541 227.880608 
L 88.321499 227.880608 
z
" clip-path="url(#p3a27bf06b6)" style="fill: #1f77b4; stroke: #303030; stroke-linejoin: miter"/>
   </g>
   <g id="patch_13">
    <path d="M 92.940541 241.137882 
L 97.559583 241.137882 
L 97.559583 209.320425 
L 92.940541 209.320425 
z
" clip-path="url(#p3a27bf06b6)" style="fill: #1f77b4; stroke: #303030; stroke-linejoin: miter"/>
   </g>
   <g id="patch_14">
    <path d="M 97.559583 241.137882 
L 102.178625 241.137882 
L 102.178625 174.851513 
L 97.559583 174.851513 
z
" clip-path="url(#p3a27bf06b6)" style="fill: #1f77b4; stroke: #303030; stroke-linejoin: miter"/>
   </g>
   <g id="patch_15">
    <path d="M 102.178625 241.137882 
L 106.797667 241.137882 
L 106.797667 177.502968 
L 102.178625 177.502968 
z
" clip-path="url(#p3a27bf06b6)" style="fill: #1f77b4; stroke: #303030; stroke-linejoin: miter"/>
   </g>
   <g id="patch_16">
    <path d="M 106.797667 241.137882 
L 111.416709 241.137882 
L 111.416709 145.68551 
L 106.797667 145.68551 
z
" clip-path="url(#p3a27bf06b6)" style="fill: #1f77b4; stroke: #303030; stroke-linejoin: miter"/>
   </g>
   <g id="patch_17">
    <path d="M 111.416709 241.137882 
L 116.035751 241.137882 
L 116.035751 132.428237 
L 111.416709 132.428237 
z
" clip-path="url(#p3a27bf06b6)" style="fill: #1f77b4; stroke: #303030; stroke-linejoin: miter"/>
   </g>
   <g id="patch_18">
    <path d="M 116.035751 241.137882 
L 120.654793 241.137882 
L 120.654793 15.764227 
L 116.035751 15.764227 
z
" clip-path="url(#p3a27bf06b6)" style="fill: #1f77b4; stroke: #303030; stroke-linejoin: miter"/>
   </g>
   <g id="patch_19">
    <path d="M 120.654793 241.137882 
L 125.273835 241.137882 
L 125.273835 68.793322 
L 120.654793 68.793322 
z
" clip-path="url(#p3a27bf06b6)" style="fill: #1f77b4; stroke: #303030; stroke-linejoin: miter"/>
   </g>
   <g id="patch_20">
    <path d="M 125.273835 241.137882 
L 129.892877 241.137882 
L 129.892877 105.913689 
L 125.273835 105.913689 
z
" clip-path="url(#p3a27bf06b6)" style="fill: #1f77b4; stroke: #303030; stroke-linejoin: miter"/>
   </g>
   <g id="patch_21">
    <path d="M 129.892877 241.137882 
L 134.511919 241.137882 
L 134.511919 145.68551 
L 129.892877 145.68551 
z
" clip-path="url(#p3a27bf06b6)" style="fill: #1f77b4; stroke: #303030; stroke-linejoin: miter"/>
   </g>
   <g id="patch_22">
    <path d="M 134.511919 241.137882 
L 139.130961 241.137882 
L 139.130961 174.851513 
L 134.511919 174.851513 
z
" clip-path="url(#p3a27bf06b6)" style="fill: #1f77b4; stroke: #303030; stroke-linejoin: miter"/>
   </g>
   <g id="patch_23">
    <path d="M 139.130961 241.137882 
L 143.750003 241.137882 
L 143.750003 193.411696 
L 139.130961 193.411696 
z
" clip-path="url(#p3a27bf06b6)" style="fill: #1f77b4; stroke: #303030; stroke-linejoin: miter"/>
   </g>
   <g id="patch_24">
    <path d="M 143.750003 241.137882 
L 148.369045 241.137882 
L 148.369045 211.971879 
L 143.750003 211.971879 
z
" clip-path="url(#p3a27bf06b6)" style="fill: #1f77b4; stroke: #303030; stroke-linejoin: miter"/>
   </g>
   <g id="patch_25">
    <path d="M 148.369045 241.137882 
L 152.988087 241.137882 
L 152.988087 230.532063 
L 148.369045 230.532063 
z
" clip-path="url(#p3a27bf06b6)" style="fill: #1f77b4; stroke: #303030; stroke-linejoin: miter"/>
   </g>
   <g id="patch_26">
    <path d="M 152.988087 241.137882 
L 157.607129 241.137882 
L 157.607129 219.926244 
L 152.988087 219.926244 
z
" clip-path="url(#p3a27bf06b6)" style="fill: #1f77b4; stroke: #303030; stroke-linejoin: miter"/>
   </g>
   <g id="patch_27">
    <path d="M 157.607129 241.137882 
L 162.226171 241.137882 
L 162.226171 238.486427 
L 157.607129 238.486427 
z
" clip-path="url(#p3a27bf06b6)" style="fill: #1f77b4; stroke: #303030; stroke-linejoin: miter"/>
   </g>
   <g id="patch_28">
    <path d="M 162.226171 241.137882 
L 166.845213 241.137882 
L 166.845213 227.880608 
L 162.226171 227.880608 
z
" clip-path="url(#p3a27bf06b6)" style="fill: #1f77b4; stroke: #303030; stroke-linejoin: miter"/>
   </g>
   <g id="patch_29">
    <path d="M 166.845213 241.137882 
L 171.464255 241.137882 
L 171.464255 238.486427 
L 166.845213 238.486427 
z
" clip-path="url(#p3a27bf06b6)" style="fill: #1f77b4; stroke: #303030; stroke-linejoin: miter"/>
   </g>
   <g id="patch_30">
    <path d="M 171.464255 241.137882 
L 176.083297 241.137882 
L 176.083297 238.486427 
L 171.464255 238.486427 
z
" clip-path="url(#p3a27bf06b6)" style="fill: #1f77b4; stroke: #303030; stroke-linejoin: miter"/>
   </g>
   <g id="patch_31">
    <path d="M 176.083297 241.137882 
L 180.702339 241.137882 
L 180.702339 241.137882 
L 176.083297 241.137882 
z
" clip-path="url(#p3a27bf06b6)" style="fill: #1f77b4; stroke: #303030; stroke-linejoin: miter"/>
   </g>
   <g id="patch_32">
    <path d="M 180.702339 241.137882 
L 185.321381 241.137882 
L 185.321381 238.486427 
L 180.702339 238.486427 
z
" clip-path="url(#p3a27bf06b6)" style="fill: #1f77b4; stroke: #303030; stroke-linejoin: miter"/>
   </g>
   <g id="patch_33">
    <path d="M 185.321381 241.137882 
L 189.940423 241.137882 
L 189.940423 241.137882 
L 185.321381 241.137882 
z
" clip-path="url(#p3a27bf06b6)" style="fill: #1f77b4; stroke: #303030; stroke-linejoin: miter"/>
   </g>
   <g id="patch_34">
    <path d="M 189.940423 241.137882 
L 194.559465 241.137882 
L 194.559465 241.137882 
L 189.940423 241.137882 
z
" clip-path="url(#p3a27bf06b6)" style="fill: #1f77b4; stroke: #303030; stroke-linejoin: miter"/>
   </g>
   <g id="patch_35">
    <path d="M 194.559465 241.137882 
L 199.178507 241.137882 
L 199.178507 230.532063 
L 194.559465 230.532063 
z
" clip-path="url(#p3a27bf06b6)" style="fill: #1f77b4; stroke: #303030; stroke-linejoin: miter"/>
   </g>
   <g id="patch_36">
    <path d="M 199.178507 241.137882 
L 203.797548 241.137882 
L 203.797548 238.486427 
L 199.178507 238.486427 
z
" clip-path="url(#p3a27bf06b6)" style="fill: #1f77b4; stroke: #303030; stroke-linejoin: miter"/>
   </g>
   <g id="patch_37">
    <path d="M 203.797548 241.137882 
L 208.41659 241.137882 
L 208.41659 241.137882 
L 203.797548 241.137882 
z
" clip-path="url(#p3a27bf06b6)" style="fill: #1f77b4; stroke: #303030; stroke-linejoin: miter"/>
   </g>
   <g id="patch_38">
    <path d="M 208.41659 241.137882 
L 213.035632 241.137882 
L 213.035632 241.137882 
L 208.41659 241.137882 
z
" clip-path="url(#p3a27bf06b6)" style="fill: #1f77b4; stroke: #303030; stroke-linejoin: miter"/>
   </g>
   <g id="patch_39">
    <path d="M 213.035632 241.137882 
L 217.654674 241.137882 
L 217.654674 241.137882 
L 213.035632 241.137882 
z
" clip-path="url(#p3a27bf06b6)" style="fill: #1f77b4; stroke: #303030; stroke-linejoin: miter"/>
   </g>
   <g id="patch_40">
    <path d="M 217.654674 241.137882 
L 222.273716 241.137882 
L 222.273716 241.137882 
L 217.654674 241.137882 
z
" clip-path="url(#p3a27bf06b6)" style="fill: #1f77b4; stroke: #303030; stroke-linejoin: miter"/>
   </g>
   <g id="patch_41">
    <path d="M 222.273716 241.137882 
L 226.892758 241.137882 
L 226.892758 241.137882 
L 222.273716 241.137882 
z
" clip-path="url(#p3a27bf06b6)" style="fill: #1f77b4; stroke: #303030; stroke-linejoin: miter"/>
   </g>
   <g id="patch_42">
    <path d="M 226.892758 241.137882 
L 231.5118 241.137882 
L 231.5118 241.137882 
L 226.892758 241.137882 
z
" clip-path="url(#p3a27bf06b6)" style="fill: #1f77b4; stroke: #303030; stroke-linejoin: miter"/>
   </g>
   <g id="patch_43">
    <path d="M 231.5118 241.137882 
L 236.130842 241.137882 
L 236.130842 241.137882 
L 231.5118 241.137882 
z
" clip-path="url(#p3a27bf06b6)" style="fill: #1f77b4; stroke: #303030; stroke-linejoin: miter"/>
   </g>
   <g id="patch_44">
    <path d="M 236.130842 241.137882 
L 240.749884 241.137882 
L 240.749884 241.137882 
L 236.130842 241.137882 
z
" clip-path="url(#p3a27bf06b6)" style="fill: #1f77b4; stroke: #303030; stroke-linejoin: miter"/>
   </g>
   <g id="patch_45">
    <path d="M 240.749884 241.137882 
L 245.368926 241.137882 
L 245.368926 241.137882 
L 240.749884 241.137882 
z
" clip-path="url(#p3a27bf06b6)" style="fill: #1f77b4; stroke: #303030; stroke-linejoin: miter"/>
   </g>
   <g id="patch_46">
    <path d="M 245.368926 241.137882 
L 249.987968 241.137882 
L 249.987968 241.137882 
L 245.368926 241.137882 
z
" clip-path="url(#p3a27bf06b6)" style="fill: #1f77b4; stroke: #303030; stroke-linejoin: miter"/>
   </g>
   <g id="patch_47">
    <path d="M 249.987968 241.137882 
L 254.60701 241.137882 
L 254.60701 241.137882 
L 249.987968 241.137882 
z
" clip-path="url(#p3a27bf06b6)" style="fill: #1f77b4; stroke: #303030; stroke-linejoin: miter"/>
   </g>
   <g id="patch_48">
    <path d="M 254.60701 241.137882 
L 259.226052 241.137882 
L 259.226052 241.137882 
L 254.60701 241.137882 
z
" clip-path="url(#p3a27bf06b6)" style="fill: #1f77b4; stroke: #303030; stroke-linejoin: miter"/>
   </g>
   <g id="patch_49">
    <path d="M 259.226052 241.137882 
L 263.845094 241.137882 
L 263.845094 241.137882 
L 259.226052 241.137882 
z
" clip-path="url(#p3a27bf06b6)" style="fill: #1f77b4; stroke: #303030; stroke-linejoin: miter"/>
   </g>
   <g id="patch_50">
    <path d="M 263.845094 241.137882 
L 268.464136 241.137882 
L 268.464136 241.137882 
L 263.845094 241.137882 
z
" clip-path="url(#p3a27bf06b6)" style="fill: #1f77b4; stroke: #303030; stroke-linejoin: miter"/>
   </g>
   <g id="patch_51">
    <path d="M 268.464136 241.137882 
L 273.083178 241.137882 
L 273.083178 241.137882 
L 268.464136 241.137882 
z
" clip-path="url(#p3a27bf06b6)" style="fill: #1f77b4; stroke: #303030; stroke-linejoin: miter"/>
   </g>
   <g id="patch_52">
    <path d="M 273.083178 241.137882 
L 277.70222 241.137882 
L 277.70222 241.137882 
L 273.083178 241.137882 
z
" clip-path="url(#p3a27bf06b6)" style="fill: #1f77b4; stroke: #303030; stroke-linejoin: miter"/>
   </g>
   <g id="patch_53">
    <path d="M 277.70222 241.137882 
L 282.321262 241.137882 
L 282.321262 241.137882 
L 277.70222 241.137882 
z
" clip-path="url(#p3a27bf06b6)" style="fill: #1f77b4; stroke: #303030; stroke-linejoin: miter"/>
   </g>
   <g id="patch_54">
    <path d="M 282.321262 241.137882 
L 286.940304 241.137882 
L 286.940304 241.137882 
L 282.321262 241.137882 
z
" clip-path="url(#p3a27bf06b6)" style="fill: #1f77b4; stroke: #303030; stroke-linejoin: miter"/>
   </g>
   <g id="patch_55">
    <path d="M 286.940304 241.137882 
L 291.559346 241.137882 
L 291.559346 241.137882 
L 286.940304 241.137882 
z
" clip-path="url(#p3a27bf06b6)" style="fill: #1f77b4; stroke: #303030; stroke-linejoin: miter"/>
   </g>
   <g id="patch_56">
    <path d="M 291.559346 241.137882 
L 296.178388 241.137882 
L 296.178388 241.137882 
L 291.559346 241.137882 
z
" clip-path="url(#p3a27bf06b6)" style="fill: #1f77b4; stroke: #303030; stroke-linejoin: miter"/>
   </g>
   <g id="patch_57">
    <path d="M 296.178388 241.137882 
L 300.79743 241.137882 
L 300.79743 241.137882 
L 296.178388 241.137882 
z
" clip-path="url(#p3a27bf06b6)" style="fill: #1f77b4; stroke: #303030; stroke-linejoin: miter"/>
   </g>
   <g id="patch_58">
    <path d="M 300.79743 241.137882 
L 305.416472 241.137882 
L 305.416472 241.137882 
L 300.79743 241.137882 
z
" clip-path="url(#p3a27bf06b6)" style="fill: #1f77b4; stroke: #303030; stroke-linejoin: miter"/>
   </g>
   <g id="patch_59">
    <path d="M 305.416472 241.137882 
L 310.035514 241.137882 
L 310.035514 241.137882 
L 305.416472 241.137882 
z
" clip-path="url(#p3a27bf06b6)" style="fill: #1f77b4; stroke: #303030; stroke-linejoin: miter"/>
   </g>
   <g id="patch_60">
    <path d="M 310.035514 241.137882 
L 314.654556 241.137882 
L 314.654556 241.137882 
L 310.035514 241.137882 
z
" clip-path="url(#p3a27bf06b6)" style="fill: #1f77b4; stroke: #303030; stroke-linejoin: miter"/>
   </g>
   <g id="patch_61">
    <path d="M 314.654556 241.137882 
L 319.273598 241.137882 
L 319.273598 241.137882 
L 314.654556 241.137882 
z
" clip-path="url(#p3a27bf06b6)" style="fill: #1f77b4; stroke: #303030; stroke-linejoin: miter"/>
   </g>
   <g id="patch_62">
    <path d="M 319.273598 241.137882 
L 323.89264 241.137882 
L 323.89264 241.137882 
L 319.273598 241.137882 
z
" clip-path="url(#p3a27bf06b6)" style="fill: #1f77b4; stroke: #303030; stroke-linejoin: miter"/>
   </g>
   <g id="patch_63">
    <path d="M 323.89264 241.137882 
L 328.511682 241.137882 
L 328.511682 238.486427 
L 323.89264 238.486427 
z
" clip-path="url(#p3a27bf06b6)" style="fill: #1f77b4; stroke: #303030; stroke-linejoin: miter"/>
   </g>
   <g id="matplotlib.axis_1">
    <g id="xtick_1">
     <g id="line2d_1">
      <defs>
       <path id="m3e71220332" d="M 0 0 
L 0 3.5 
" style="stroke: #666666; stroke-width: 0.8"/>
      </defs>
      <g>
       <use xlink:href="#m3e71220332" x="57.541343" y="241.137882" style="fill: #666666; stroke: #666666; stroke-width: 0.8"/>
      </g>
     </g>
     <g id="text_1">
      <!-- −0.05 -->
      <g style="fill: #666666" transform="translate(44.77757 254.46738) scale(0.0833 -0.0833)">
       <defs>
        <path id="DejaVuSans-2212" d="M 678 2272 
L 4684 2272 
L 4684 1741 
L 678 1741 
L 678 2272 
z
" transform="scale(0.015625)"/>
        <path id="DejaVuSans-30" d="M 2034 4250 
Q 1547 4250 1301 3770 
Q 1056 3291 1056 2328 
Q 1056 1369 1301 889 
Q 1547 409 2034 409 
Q 2525 409 2770 889 
Q 3016 1369 3016 2328 
Q 3016 3291 2770 3770 
Q 2525 4250 2034 4250 
z
M 2034 4750 
Q 2819 4750 3233 4129 
Q 3647 3509 3647 2328 
Q 3647 1150 3233 529 
Q 2819 -91 2034 -91 
Q 1250 -91 836 529 
Q 422 1150 422 2328 
Q 422 3509 836 4129 
Q 1250 4750 2034 4750 
z
" transform="scale(0.015625)"/>
        <path id="DejaVuSans-2e" d="M 684 794 
L 1344 794 
L 1344 0 
L 684 0 
L 684 794 
z
" transform="scale(0.015625)"/>
        <path id="DejaVuSans-35" d="M 691 4666 
L 3169 4666 
L 3169 4134 
L 1269 4134 
L 1269 2991 
Q 1406 3038 1543 3061 
Q 1681 3084 1819 3084 
Q 2600 3084 3056 2656 
Q 3513 2228 3513 1497 
Q 3513 744 3044 326 
Q 2575 -91 1722 -91 
Q 1428 -91 1123 -41 
Q 819 9 494 109 
L 494 744 
Q 775 591 1075 516 
Q 1375 441 1709 441 
Q 2250 441 2565 725 
Q 2881 1009 2881 1497 
Q 2881 1984 2565 2268 
Q 2250 2553 1709 2553 
Q 1456 2553 1204 2497 
Q 953 2441 691 2322 
L 691 4666 
z
" transform="scale(0.015625)"/>
       </defs>
       <use xlink:href="#DejaVuSans-2212"/>
       <use xlink:href="#DejaVuSans-30" x="83.789062"/>
       <use xlink:href="#DejaVuSans-2e" x="147.412109"/>
       <use xlink:href="#DejaVuSans-30" x="179.199219"/>
       <use xlink:href="#DejaVuSans-35" x="242.822266"/>
      </g>
     </g>
    </g>
    <g id="xtick_2">
     <g id="line2d_2">
      <g>
       <use xlink:href="#m3e71220332" x="120.609063" y="241.137882" style="fill: #666666; stroke: #666666; stroke-width: 0.8"/>
      </g>
     </g>
     <g id="text_2">
      <!-- 0.00 -->
      <g style="fill: #666666" transform="translate(111.33543 254.46738) scale(0.0833 -0.0833)">
       <use xlink:href="#DejaVuSans-30"/>
       <use xlink:href="#DejaVuSans-2e" x="63.623047"/>
       <use xlink:href="#DejaVuSans-30" x="95.410156"/>
       <use xlink:href="#DejaVuSans-30" x="159.033203"/>
      </g>
     </g>
    </g>
    <g id="xtick_3">
     <g id="line2d_3">
      <g>
       <use xlink:href="#m3e71220332" x="183.676783" y="241.137882" style="fill: #666666; stroke: #666666; stroke-width: 0.8"/>
      </g>
     </g>
     <g id="text_3">
      <!-- 0.05 -->
      <g style="fill: #666666" transform="translate(174.40315 254.46738) scale(0.0833 -0.0833)">
       <use xlink:href="#DejaVuSans-30"/>
       <use xlink:href="#DejaVuSans-2e" x="63.623047"/>
       <use xlink:href="#DejaVuSans-30" x="95.410156"/>
       <use xlink:href="#DejaVuSans-35" x="159.033203"/>
      </g>
     </g>
    </g>
    <g id="xtick_4">
     <g id="line2d_4">
      <g>
       <use xlink:href="#m3e71220332" x="246.744503" y="241.137882" style="fill: #666666; stroke: #666666; stroke-width: 0.8"/>
      </g>
     </g>
     <g id="text_4">
      <!-- 0.10 -->
      <g style="fill: #666666" transform="translate(237.47087 254.46738) scale(0.0833 -0.0833)">
       <defs>
        <path id="DejaVuSans-31" d="M 794 531 
L 1825 531 
L 1825 4091 
L 703 3866 
L 703 4441 
L 1819 4666 
L 2450 4666 
L 2450 531 
L 3481 531 
L 3481 0 
L 794 0 
L 794 531 
z
" transform="scale(0.015625)"/>
       </defs>
       <use xlink:href="#DejaVuSans-30"/>
       <use xlink:href="#DejaVuSans-2e" x="63.623047"/>
       <use xlink:href="#DejaVuSans-31" x="95.410156"/>
       <use xlink:href="#DejaVuSans-30" x="159.033203"/>
      </g>
     </g>
    </g>
    <g id="xtick_5">
     <g id="line2d_5">
      <g>
       <use xlink:href="#m3e71220332" x="309.812223" y="241.137882" style="fill: #666666; stroke: #666666; stroke-width: 0.8"/>
      </g>
     </g>
     <g id="text_5">
      <!-- 0.15 -->
      <g style="fill: #666666" transform="translate(300.53859 254.46738) scale(0.0833 -0.0833)">
       <use xlink:href="#DejaVuSans-30"/>
       <use xlink:href="#DejaVuSans-2e" x="63.623047"/>
       <use xlink:href="#DejaVuSans-31" x="95.410156"/>
       <use xlink:href="#DejaVuSans-35" x="159.033203"/>
      </g>
     </g>
    </g>
   </g>
   <g id="matplotlib.axis_2">
    <g id="ytick_1">
     <g id="line2d_6">
      <defs>
       <path id="ma19f1b4517" d="M 0 0 
L -3.5 0 
" style="stroke: #666666; stroke-width: 0.8"/>
      </defs>
      <g>
       <use xlink:href="#ma19f1b4517" x="32.662043" y="241.137882" style="fill: #666666; stroke: #666666; stroke-width: 0.8"/>
      </g>
     </g>
     <g id="text_6">
      <!-- 0 -->
      <g style="fill: #666666" transform="translate(20.362081 244.302631) scale(0.0833 -0.0833)">
       <use xlink:href="#DejaVuSans-30"/>
      </g>
     </g>
    </g>
    <g id="ytick_2">
     <g id="line2d_7">
      <g>
       <use xlink:href="#ma19f1b4517" x="32.662043" y="194.14367" style="fill: #666666; stroke: #666666; stroke-width: 0.8"/>
      </g>
     </g>
     <g id="text_7">
      <!-- 10 -->
      <g style="fill: #666666" transform="translate(15.062118 197.30842) scale(0.0833 -0.0833)">
       <use xlink:href="#DejaVuSans-31"/>
       <use xlink:href="#DejaVuSans-30" x="63.623047"/>
      </g>
     </g>
    </g>
    <g id="ytick_3">
     <g id="line2d_8">
      <g>
       <use xlink:href="#ma19f1b4517" x="32.662043" y="147.149459" style="fill: #666666; stroke: #666666; stroke-width: 0.8"/>
      </g>
     </g>
     <g id="text_8">
      <!-- 20 -->
      <g style="fill: #666666" transform="translate(15.062118 150.314208) scale(0.0833 -0.0833)">
       <defs>
        <path id="DejaVuSans-32" d="M 1228 531 
L 3431 531 
L 3431 0 
L 469 0 
L 469 531 
Q 828 903 1448 1529 
Q 2069 2156 2228 2338 
Q 2531 2678 2651 2914 
Q 2772 3150 2772 3378 
Q 2772 3750 2511 3984 
Q 2250 4219 1831 4219 
Q 1534 4219 1204 4116 
Q 875 4013 500 3803 
L 500 4441 
Q 881 4594 1212 4672 
Q 1544 4750 1819 4750 
Q 2544 4750 2975 4387 
Q 3406 4025 3406 3419 
Q 3406 3131 3298 2873 
Q 3191 2616 2906 2266 
Q 2828 2175 2409 1742 
Q 1991 1309 1228 531 
z
" transform="scale(0.015625)"/>
       </defs>
       <use xlink:href="#DejaVuSans-32"/>
       <use xlink:href="#DejaVuSans-30" x="63.623047"/>
      </g>
     </g>
    </g>
    <g id="ytick_4">
     <g id="line2d_9">
      <g>
       <use xlink:href="#ma19f1b4517" x="32.662043" y="100.155248" style="fill: #666666; stroke: #666666; stroke-width: 0.8"/>
      </g>
     </g>
     <g id="text_9">
      <!-- 30 -->
      <g style="fill: #666666" transform="translate(15.062118 103.319997) scale(0.0833 -0.0833)">
       <defs>
        <path id="DejaVuSans-33" d="M 2597 2516 
Q 3050 2419 3304 2112 
Q 3559 1806 3559 1356 
Q 3559 666 3084 287 
Q 2609 -91 1734 -91 
Q 1441 -91 1130 -33 
Q 819 25 488 141 
L 488 750 
Q 750 597 1062 519 
Q 1375 441 1716 441 
Q 2309 441 2620 675 
Q 2931 909 2931 1356 
Q 2931 1769 2642 2001 
Q 2353 2234 1838 2234 
L 1294 2234 
L 1294 2753 
L 1863 2753 
Q 2328 2753 2575 2939 
Q 2822 3125 2822 3475 
Q 2822 3834 2567 4026 
Q 2313 4219 1838 4219 
Q 1578 4219 1281 4162 
Q 984 4106 628 3988 
L 628 4550 
Q 988 4650 1302 4700 
Q 1616 4750 1894 4750 
Q 2613 4750 3031 4423 
Q 3450 4097 3450 3541 
Q 3450 3153 3228 2886 
Q 3006 2619 2597 2516 
z
" transform="scale(0.015625)"/>
       </defs>
       <use xlink:href="#DejaVuSans-33"/>
       <use xlink:href="#DejaVuSans-30" x="63.623047"/>
      </g>
     </g>
    </g>
    <g id="ytick_5">
     <g id="line2d_10">
      <g>
       <use xlink:href="#ma19f1b4517" x="32.662043" y="53.161036" style="fill: #666666; stroke: #666666; stroke-width: 0.8"/>
      </g>
     </g>
     <g id="text_10">
      <!-- 40 -->
      <g style="fill: #666666" transform="translate(15.062118 56.325785) scale(0.0833 -0.0833)">
       <defs>
        <path id="DejaVuSans-34" d="M 2419 4116 
L 825 1625 
L 2419 1625 
L 2419 4116 
z
M 2253 4666 
L 3047 4666 
L 3047 1625 
L 3713 1625 
L 3713 1100 
L 3047 1100 
L 3047 0 
L 2419 0 
L 2419 1100 
L 313 1100 
L 313 1709 
L 2253 4666 
z
" transform="scale(0.015625)"/>
       </defs>
       <use xlink:href="#DejaVuSans-34"/>
       <use xlink:href="#DejaVuSans-30" x="63.623047"/>
      </g>
     </g>
    </g>
    <g id="ytick_6">
     <g id="line2d_11">
      <g>
       <use xlink:href="#ma19f1b4517" x="32.662043" y="6.166825" style="fill: #666666; stroke: #666666; stroke-width: 0.8"/>
      </g>
     </g>
     <g id="text_11">
      <!-- 50 -->
      <g style="fill: #666666" transform="translate(15.062118 9.331574) scale(0.0833 -0.0833)">
       <use xlink:href="#DejaVuSans-35"/>
       <use xlink:href="#DejaVuSans-30" x="63.623047"/>
      </g>
     </g>
    </g>
    <g id="text_12">
     <!-- probability density -->
     <g style="fill: #666666" transform="translate(9.329738 161.632561) rotate(-90) scale(0.0833 -0.0833)">
      <defs>
       <path id="DejaVuSans-70" d="M 1159 525 
L 1159 -1331 
L 581 -1331 
L 581 3500 
L 1159 3500 
L 1159 2969 
Q 1341 3281 1617 3432 
Q 1894 3584 2278 3584 
Q 2916 3584 3314 3078 
Q 3713 2572 3713 1747 
Q 3713 922 3314 415 
Q 2916 -91 2278 -91 
Q 1894 -91 1617 61 
Q 1341 213 1159 525 
z
M 3116 1747 
Q 3116 2381 2855 2742 
Q 2594 3103 2138 3103 
Q 1681 3103 1420 2742 
Q 1159 2381 1159 1747 
Q 1159 1113 1420 752 
Q 1681 391 2138 391 
Q 2594 391 2855 752 
Q 3116 1113 3116 1747 
z
" transform="scale(0.015625)"/>
       <path id="DejaVuSans-72" d="M 2631 2963 
Q 2534 3019 2420 3045 
Q 2306 3072 2169 3072 
Q 1681 3072 1420 2755 
Q 1159 2438 1159 1844 
L 1159 0 
L 581 0 
L 581 3500 
L 1159 3500 
L 1159 2956 
Q 1341 3275 1631 3429 
Q 1922 3584 2338 3584 
Q 2397 3584 2469 3576 
Q 2541 3569 2628 3553 
L 2631 2963 
z
" transform="scale(0.015625)"/>
       <path id="DejaVuSans-6f" d="M 1959 3097 
Q 1497 3097 1228 2736 
Q 959 2375 959 1747 
Q 959 1119 1226 758 
Q 1494 397 1959 397 
Q 2419 397 2687 759 
Q 2956 1122 2956 1747 
Q 2956 2369 2687 2733 
Q 2419 3097 1959 3097 
z
M 1959 3584 
Q 2709 3584 3137 3096 
Q 3566 2609 3566 1747 
Q 3566 888 3137 398 
Q 2709 -91 1959 -91 
Q 1206 -91 779 398 
Q 353 888 353 1747 
Q 353 2609 779 3096 
Q 1206 3584 1959 3584 
z
" transform="scale(0.015625)"/>
       <path id="DejaVuSans-62" d="M 3116 1747 
Q 3116 2381 2855 2742 
Q 2594 3103 2138 3103 
Q 1681 3103 1420 2742 
Q 1159 2381 1159 1747 
Q 1159 1113 1420 752 
Q 1681 391 2138 391 
Q 2594 391 2855 752 
Q 3116 1113 3116 1747 
z
M 1159 2969 
Q 1341 3281 1617 3432 
Q 1894 3584 2278 3584 
Q 2916 3584 3314 3078 
Q 3713 2572 3713 1747 
Q 3713 922 3314 415 
Q 2916 -91 2278 -91 
Q 1894 -91 1617 61 
Q 1341 213 1159 525 
L 1159 0 
L 581 0 
L 581 4863 
L 1159 4863 
L 1159 2969 
z
" transform="scale(0.015625)"/>
       <path id="DejaVuSans-61" d="M 2194 1759 
Q 1497 1759 1228 1600 
Q 959 1441 959 1056 
Q 959 750 1161 570 
Q 1363 391 1709 391 
Q 2188 391 2477 730 
Q 2766 1069 2766 1631 
L 2766 1759 
L 2194 1759 
z
M 3341 1997 
L 3341 0 
L 2766 0 
L 2766 531 
Q 2569 213 2275 61 
Q 1981 -91 1556 -91 
Q 1019 -91 701 211 
Q 384 513 384 1019 
Q 384 1609 779 1909 
Q 1175 2209 1959 2209 
L 2766 2209 
L 2766 2266 
Q 2766 2663 2505 2880 
Q 2244 3097 1772 3097 
Q 1472 3097 1187 3025 
Q 903 2953 641 2809 
L 641 3341 
Q 956 3463 1253 3523 
Q 1550 3584 1831 3584 
Q 2591 3584 2966 3190 
Q 3341 2797 3341 1997 
z
" transform="scale(0.015625)"/>
       <path id="DejaVuSans-69" d="M 603 3500 
L 1178 3500 
L 1178 0 
L 603 0 
L 603 3500 
z
M 603 4863 
L 1178 4863 
L 1178 4134 
L 603 4134 
L 603 4863 
z
" transform="scale(0.015625)"/>
       <path id="DejaVuSans-6c" d="M 603 4863 
L 1178 4863 
L 1178 0 
L 603 0 
L 603 4863 
z
" transform="scale(0.015625)"/>
       <path id="DejaVuSans-74" d="M 1172 4494 
L 1172 3500 
L 2356 3500 
L 2356 3053 
L 1172 3053 
L 1172 1153 
Q 1172 725 1289 603 
Q 1406 481 1766 481 
L 2356 481 
L 2356 0 
L 1766 0 
Q 1100 0 847 248 
Q 594 497 594 1153 
L 594 3053 
L 172 3053 
L 172 3500 
L 594 3500 
L 594 4494 
L 1172 4494 
z
" transform="scale(0.015625)"/>
       <path id="DejaVuSans-79" d="M 2059 -325 
Q 1816 -950 1584 -1140 
Q 1353 -1331 966 -1331 
L 506 -1331 
L 506 -850 
L 844 -850 
Q 1081 -850 1212 -737 
Q 1344 -625 1503 -206 
L 1606 56 
L 191 3500 
L 800 3500 
L 1894 763 
L 2988 3500 
L 3597 3500 
L 2059 -325 
z
" transform="scale(0.015625)"/>
       <path id="DejaVuSans-20" transform="scale(0.015625)"/>
       <path id="DejaVuSans-64" d="M 2906 2969 
L 2906 4863 
L 3481 4863 
L 3481 0 
L 2906 0 
L 2906 525 
Q 2725 213 2448 61 
Q 2172 -91 1784 -91 
Q 1150 -91 751 415 
Q 353 922 353 1747 
Q 353 2572 751 3078 
Q 1150 3584 1784 3584 
Q 2172 3584 2448 3432 
Q 2725 3281 2906 2969 
z
M 947 1747 
Q 947 1113 1208 752 
Q 1469 391 1925 391 
Q 2381 391 2643 752 
Q 2906 1113 2906 1747 
Q 2906 2381 2643 2742 
Q 2381 3103 1925 3103 
Q 1469 3103 1208 2742 
Q 947 2381 947 1747 
z
" transform="scale(0.015625)"/>
       <path id="DejaVuSans-65" d="M 3597 1894 
L 3597 1613 
L 953 1613 
Q 991 1019 1311 708 
Q 1631 397 2203 397 
Q 2534 397 2845 478 
Q 3156 559 3463 722 
L 3463 178 
Q 3153 47 2828 -22 
Q 2503 -91 2169 -91 
Q 1331 -91 842 396 
Q 353 884 353 1716 
Q 353 2575 817 3079 
Q 1281 3584 2069 3584 
Q 2775 3584 3186 3129 
Q 3597 2675 3597 1894 
z
M 3022 2063 
Q 3016 2534 2758 2815 
Q 2500 3097 2075 3097 
Q 1594 3097 1305 2825 
Q 1016 2553 972 2059 
L 3022 2063 
z
" transform="scale(0.015625)"/>
       <path id="DejaVuSans-6e" d="M 3513 2113 
L 3513 0 
L 2938 0 
L 2938 2094 
Q 2938 2591 2744 2837 
Q 2550 3084 2163 3084 
Q 1697 3084 1428 2787 
Q 1159 2491 1159 1978 
L 1159 0 
L 581 0 
L 581 3500 
L 1159 3500 
L 1159 2956 
Q 1366 3272 1645 3428 
Q 1925 3584 2291 3584 
Q 2894 3584 3203 3211 
Q 3513 2838 3513 2113 
z
" transform="scale(0.015625)"/>
       <path id="DejaVuSans-73" d="M 2834 3397 
L 2834 2853 
Q 2591 2978 2328 3040 
Q 2066 3103 1784 3103 
Q 1356 3103 1142 2972 
Q 928 2841 928 2578 
Q 928 2378 1081 2264 
Q 1234 2150 1697 2047 
L 1894 2003 
Q 2506 1872 2764 1633 
Q 3022 1394 3022 966 
Q 3022 478 2636 193 
Q 2250 -91 1575 -91 
Q 1294 -91 989 -36 
Q 684 19 347 128 
L 347 722 
Q 666 556 975 473 
Q 1284 391 1588 391 
Q 1994 391 2212 530 
Q 2431 669 2431 922 
Q 2431 1156 2273 1281 
Q 2116 1406 1581 1522 
L 1381 1569 
Q 847 1681 609 1914 
Q 372 2147 372 2553 
Q 372 3047 722 3315 
Q 1072 3584 1716 3584 
Q 2034 3584 2315 3537 
Q 2597 3491 2834 3397 
z
" transform="scale(0.015625)"/>
      </defs>
      <use xlink:href="#DejaVuSans-70"/>
      <use xlink:href="#DejaVuSans-72" x="63.476562"/>
      <use xlink:href="#DejaVuSans-6f" x="102.339844"/>
      <use xlink:href="#DejaVuSans-62" x="163.521484"/>
      <use xlink:href="#DejaVuSans-61" x="226.998047"/>
      <use xlink:href="#DejaVuSans-62" x="288.277344"/>
      <use xlink:href="#DejaVuSans-69" x="351.753906"/>
      <use xlink:href="#DejaVuSans-6c" x="379.537109"/>
      <use xlink:href="#DejaVuSans-69" x="407.320312"/>
      <use xlink:href="#DejaVuSans-74" x="435.103516"/>
      <use xlink:href="#DejaVuSans-79" x="474.3125"/>
      <use xlink:href="#DejaVuSans-20" x="533.492188"/>
      <use xlink:href="#DejaVuSans-64" x="565.279297"/>
      <use xlink:href="#DejaVuSans-65" x="628.755859"/>
      <use xlink:href="#DejaVuSans-6e" x="690.279297"/>
      <use xlink:href="#DejaVuSans-73" x="753.658203"/>
      <use xlink:href="#DejaVuSans-69" x="805.757812"/>
      <use xlink:href="#DejaVuSans-74" x="833.541016"/>
      <use xlink:href="#DejaVuSans-79" x="872.75"/>
     </g>
    </g>
   </g>
   <g id="line2d_12">
    <path d="M 46.750121 237.823466 
L 49.852601 237.175197 
L 52.95508 236.773714 
L 56.339604 236.570425 
L 61.980476 236.300471 
L 63.672737 235.953527 
L 65.082955 235.458718 
L 66.493173 234.744667 
L 68.185435 233.600975 
L 70.15974 231.959304 
L 74.954482 227.820864 
L 76.928787 226.486853 
L 79.467179 225.084859 
L 81.723528 223.80214 
L 83.133746 222.765082 
L 84.261921 221.695884 
L 85.390095 220.336872 
L 86.518269 218.619766 
L 87.646444 216.483678 
L 88.774618 213.880659 
L 89.902793 210.781482 
L 91.313011 206.203771 
L 92.723229 200.890664 
L 94.41549 193.695168 
L 96.671839 183.115304 
L 99.774319 167.459026 
L 102.030668 155.123196 
L 103.722929 144.841482 
L 105.415191 133.191027 
L 107.107453 119.829928 
L 108.799714 104.680075 
L 111.056063 82.290593 
L 114.72263 45.738908 
L 116.132848 33.966976 
L 117.261022 26.304651 
L 118.107153 21.807955 
L 118.953284 18.507468 
L 119.517371 17.01093 
L 120.081458 16.094441 
L 120.363502 15.855952 
L 120.645546 15.764227 
L 120.927589 15.818884 
L 121.209633 16.01909 
L 121.77372 16.850629 
L 122.337807 18.243641 
L 122.901894 20.176697 
L 123.748025 24.028585 
L 124.594156 28.923869 
L 125.72233 36.852697 
L 127.132548 48.553924 
L 129.106854 67.125468 
L 135.311813 127.325388 
L 137.286118 143.89447 
L 139.260423 158.534744 
L 140.952685 169.535493 
L 142.644947 179.190568 
L 144.337208 187.61766 
L 146.02947 194.934879 
L 147.721732 201.243246 
L 149.413993 206.628944 
L 151.106255 211.177383 
L 152.798516 214.986634 
L 154.490778 218.170988 
L 156.18304 220.853449 
L 158.157345 223.506201 
L 160.413694 226.102055 
L 162.952086 228.66595 
L 165.772522 231.215423 
L 168.592958 233.466686 
L 170.849307 235.004926 
L 173.105656 236.271039 
L 175.362005 237.260835 
L 177.618354 237.99802 
L 179.874702 238.509558 
L 182.131051 238.797272 
L 184.105357 238.840274 
L 186.079662 238.658908 
L 188.053967 238.251305 
L 190.874403 237.40155 
L 193.694839 236.594105 
L 195.387101 236.320628 
L 197.079362 236.287158 
L 198.771624 236.50475 
L 200.745929 237.024513 
L 203.566365 238.046569 
L 207.514976 239.461747 
L 210.053368 240.143044 
L 212.591761 240.607319 
L 215.69424 240.928343 
L 219.642851 241.089605 
L 227.822115 241.13714 
L 313.845415 241.065438 
L 318.358112 240.842452 
L 324.281028 240.277288 
L 327.665551 240.070187 
L 328.511682 240.060551 
L 328.511682 240.060551 
" clip-path="url(#p3a27bf06b6)" style="fill: none; stroke: #32cd32; stroke-width: 1.5; stroke-linecap: square"/>
   </g>
   <g id="patch_64">
    <path d="M 32.662043 241.137882 
L 32.662043 4.495544 
" style="fill: none; stroke: #000000; stroke-width: 0.8; stroke-linejoin: miter; stroke-linecap: square"/>
   </g>
   <g id="patch_65">
    <path d="M 342.59976 241.137882 
L 342.59976 4.495544 
" style="fill: none; stroke: #000000; stroke-width: 0.8; stroke-linejoin: miter; stroke-linecap: square"/>
   </g>
   <g id="patch_66">
    <path d="M 32.662043 241.137882 
L 342.59976 241.137882 
" style="fill: none; stroke: #000000; stroke-width: 0.8; stroke-linejoin: miter; stroke-linecap: square"/>
   </g>
   <g id="patch_67">
    <path d="M 32.662043 4.495544 
L 342.59976 4.495544 
" style="fill: none; stroke: #000000; stroke-width: 0.8; stroke-linejoin: miter; stroke-linecap: square"/>
   </g>
   <g id="legend_1">
    <g id="patch_68">
     <path d="M 247.294147 35.6133 
L 336.76876 35.6133 
Q 338.43476 35.6133 338.43476 33.9473 
L 338.43476 10.326544 
Q 338.43476 8.660544 336.76876 8.660544 
L 247.294147 8.660544 
Q 245.628147 8.660544 245.628147 10.326544 
L 245.628147 33.9473 
Q 245.628147 35.6133 247.294147 35.6133 
z
" style="fill: #303030; opacity: 0.7; stroke: #202020; stroke-linejoin: miter"/>
    </g>
    <g id="patch_69">
     <path d="M 248.960147 18.322043 
L 265.620147 18.322043 
L 265.620147 12.491043 
L 248.960147 12.491043 
z
" style="fill: #1f77b4; stroke: #303030; stroke-linejoin: miter"/>
    </g>
    <g id="text_13">
     <!-- 6h returns -->
     <g style="fill: #d0d0d0" transform="translate(272.284147 18.322043) scale(0.0833 -0.0833)">
      <defs>
       <path id="DejaVuSans-36" d="M 2113 2584 
Q 1688 2584 1439 2293 
Q 1191 2003 1191 1497 
Q 1191 994 1439 701 
Q 1688 409 2113 409 
Q 2538 409 2786 701 
Q 3034 994 3034 1497 
Q 3034 2003 2786 2293 
Q 2538 2584 2113 2584 
z
M 3366 4563 
L 3366 3988 
Q 3128 4100 2886 4159 
Q 2644 4219 2406 4219 
Q 1781 4219 1451 3797 
Q 1122 3375 1075 2522 
Q 1259 2794 1537 2939 
Q 1816 3084 2150 3084 
Q 2853 3084 3261 2657 
Q 3669 2231 3669 1497 
Q 3669 778 3244 343 
Q 2819 -91 2113 -91 
Q 1303 -91 875 529 
Q 447 1150 447 2328 
Q 447 3434 972 4092 
Q 1497 4750 2381 4750 
Q 2619 4750 2861 4703 
Q 3103 4656 3366 4563 
z
" transform="scale(0.015625)"/>
       <path id="DejaVuSans-68" d="M 3513 2113 
L 3513 0 
L 2938 0 
L 2938 2094 
Q 2938 2591 2744 2837 
Q 2550 3084 2163 3084 
Q 1697 3084 1428 2787 
Q 1159 2491 1159 1978 
L 1159 0 
L 581 0 
L 581 4863 
L 1159 4863 
L 1159 2956 
Q 1366 3272 1645 3428 
Q 1925 3584 2291 3584 
Q 2894 3584 3203 3211 
Q 3513 2838 3513 2113 
z
" transform="scale(0.015625)"/>
       <path id="DejaVuSans-75" d="M 544 1381 
L 544 3500 
L 1119 3500 
L 1119 1403 
Q 1119 906 1312 657 
Q 1506 409 1894 409 
Q 2359 409 2629 706 
Q 2900 1003 2900 1516 
L 2900 3500 
L 3475 3500 
L 3475 0 
L 2900 0 
L 2900 538 
Q 2691 219 2414 64 
Q 2138 -91 1772 -91 
Q 1169 -91 856 284 
Q 544 659 544 1381 
z
M 1991 3584 
L 1991 3584 
z
" transform="scale(0.015625)"/>
      </defs>
      <use xlink:href="#DejaVuSans-36"/>
      <use xlink:href="#DejaVuSans-68" x="63.623047"/>
      <use xlink:href="#DejaVuSans-20" x="127.001953"/>
      <use xlink:href="#DejaVuSans-72" x="158.789062"/>
      <use xlink:href="#DejaVuSans-65" x="197.652344"/>
      <use xlink:href="#DejaVuSans-74" x="259.175781"/>
      <use xlink:href="#DejaVuSans-75" x="298.384766"/>
      <use xlink:href="#DejaVuSans-72" x="361.763672"/>
      <use xlink:href="#DejaVuSans-6e" x="401.126953"/>
      <use xlink:href="#DejaVuSans-73" x="464.505859"/>
     </g>
    </g>
    <g id="line2d_13">
     <path d="M 248.960147 27.633421 
L 257.290147 27.633421 
L 265.620147 27.633421 
" style="fill: none; stroke: #32cd32; stroke-width: 1.5; stroke-linecap: square"/>
    </g>
    <g id="text_14">
     <!-- 6h returns KDE -->
     <g style="fill: #d0d0d0" transform="translate(272.284147 30.548921) scale(0.0833 -0.0833)">
      <defs>
       <path id="DejaVuSans-4b" d="M 628 4666 
L 1259 4666 
L 1259 2694 
L 3353 4666 
L 4166 4666 
L 1850 2491 
L 4331 0 
L 3500 0 
L 1259 2247 
L 1259 0 
L 628 0 
L 628 4666 
z
" transform="scale(0.015625)"/>
       <path id="DejaVuSans-44" d="M 1259 4147 
L 1259 519 
L 2022 519 
Q 2988 519 3436 956 
Q 3884 1394 3884 2338 
Q 3884 3275 3436 3711 
Q 2988 4147 2022 4147 
L 1259 4147 
z
M 628 4666 
L 1925 4666 
Q 3281 4666 3915 4102 
Q 4550 3538 4550 2338 
Q 4550 1131 3912 565 
Q 3275 0 1925 0 
L 628 0 
L 628 4666 
z
" transform="scale(0.015625)"/>
       <path id="DejaVuSans-45" d="M 628 4666 
L 3578 4666 
L 3578 4134 
L 1259 4134 
L 1259 2753 
L 3481 2753 
L 3481 2222 
L 1259 2222 
L 1259 531 
L 3634 531 
L 3634 0 
L 628 0 
L 628 4666 
z
" transform="scale(0.015625)"/>
      </defs>
      <use xlink:href="#DejaVuSans-36"/>
      <use xlink:href="#DejaVuSans-68" x="63.623047"/>
      <use xlink:href="#DejaVuSans-20" x="127.001953"/>
      <use xlink:href="#DejaVuSans-72" x="158.789062"/>
      <use xlink:href="#DejaVuSans-65" x="197.652344"/>
      <use xlink:href="#DejaVuSans-74" x="259.175781"/>
      <use xlink:href="#DejaVuSans-75" x="298.384766"/>
      <use xlink:href="#DejaVuSans-72" x="361.763672"/>
      <use xlink:href="#DejaVuSans-6e" x="401.126953"/>
      <use xlink:href="#DejaVuSans-73" x="464.505859"/>
      <use xlink:href="#DejaVuSans-20" x="516.605469"/>
      <use xlink:href="#DejaVuSans-4b" x="548.392578"/>
      <use xlink:href="#DejaVuSans-44" x="613.96875"/>
      <use xlink:href="#DejaVuSans-45" x="690.970703"/>
     </g>
    </g>
   </g>
  </g>
 </g>
 <defs>
  <clipPath id="p3a27bf06b6">
   <rect x="32.662043" y="4.495544" width="309.937717" height="236.642338"/>
  </clipPath>
 </defs>
</svg>
